<?xml version="1.0" encoding="UTF-8" standalone="no"?>
<!DOCTYPE svg PUBLIC "-//W3C//DTD SVG 1.1//EN" "http://www.w3.org/Graphics/SVG/1.1/DTD/svg11.dtd">
<svg width="100%" height="100%" viewBox="0 0 2139 2139" version="1.1" xmlns="http://www.w3.org/2000/svg" xmlns:xlink="http://www.w3.org/1999/xlink" xml:space="preserve" xmlns:serif="http://www.serif.com/" style="fill-rule:evenodd;clip-rule:evenodd;stroke-linecap:round;stroke-linejoin:round;stroke-miterlimit:1.5;">
    <g transform="matrix(1,0,0,1,-14288.3,-14502.9)">
        <g transform="matrix(5.66657,0,0,3.22938,42318,2199.47)">
            <g transform="matrix(28.5934,0,0,50.1726,-311251,-1.19278e+06)">
                <g transform="matrix(1.1,0,0,1.1,-1071.3,-2385)">
                    <rect x="10713" y="23850" width="11" height="11" style="fill:none;stroke:rgb(116,213,191);stroke-width:1px;"/>
                </g>
                <g transform="matrix(1.65,0,0,1.65,-6964.75,-15505.7)">
                    <rect x="10715" y="23855" width="1" height="1" style="fill:rgb(116,213,191);"/>
                </g>
                <g transform="matrix(1.65,0,0,1.65,-6964.75,-15502.7)">
                    <rect x="10715" y="23855" width="1" height="1" style="fill:rgb(116,213,191);"/>
                </g>
                <g transform="matrix(1.65,0,0,1.65,-6966.47,-15505.7)">
                    <rect x="10718" y="23855" width="1" height="1" style="fill:rgb(116,213,191);"/>
                </g>
                <g transform="matrix(1.65,0,0,1.65,-6966.47,-15502.7)">
                    <rect x="10718" y="23855" width="1" height="1" style="fill:rgb(116,213,191);"/>
                </g>
                <g transform="matrix(1.65,0,0,1.65,-6963.45,-15505.7)">
                    <rect x="10718" y="23855" width="1" height="1" style="fill:rgb(116,213,191);"/>
                </g>
                <g transform="matrix(1.65,0,0,1.65,-6963.45,-15502.7)">
                    <rect x="10718" y="23855" width="1" height="1" style="fill:rgb(116,213,191);"/>
                </g>
                <g transform="matrix(1.1,0,0,1,-714.9,-25)">
                    <path d="M10389,23878L10400,23878" style="fill:none;stroke:rgb(116,213,191);stroke-width:1.05px;"/>
                </g>
            </g>
        </g>
    </g>
</svg>
