<?xml version="1.0" encoding="UTF-8" standalone="no"?>
<!DOCTYPE svg PUBLIC "-//W3C//DTD SVG 1.1//EN" "http://www.w3.org/Graphics/SVG/1.1/DTD/svg11.dtd">
<svg width="100%" height="100%" viewBox="0 0 151 14" version="1.1" xmlns="http://www.w3.org/2000/svg" xmlns:xlink="http://www.w3.org/1999/xlink" xml:space="preserve" xmlns:serif="http://www.serif.com/" style="fill-rule:evenodd;clip-rule:evenodd;stroke-linejoin:round;stroke-miterlimit:2;">
    <g transform="matrix(1,0,0,1,-13075.3,-9640.55)">
        <g transform="matrix(1,0,0,1,12721.3,6262.1)">
            <g transform="matrix(0.858833,0,0,0.858833,-10.7192,544.584)">
                <path d="M543.885,3302.4L543.896,3302.29L536.417,3300.82C534.672,3300.49 532.989,3301.2 532.004,3302.55C531.631,3303.05 531.355,3303.63 531.211,3304.28L531.267,3304.35C531.267,3304.35 531.21,3304.28 531.21,3304.28L531.118,3304.74L529.219,3304.62L528.985,3303.65C528.691,3302.5 528.032,3301.57 527.011,3300.94C525.99,3300.32 524.861,3300.15 523.708,3300.44L516.274,3302.25C515.122,3302.54 514.192,3303.2 513.567,3304.22C513.567,3304.22 513.567,3304.22 513.567,3304.22C513.109,3304.97 512.891,3305.79 512.911,3306.6C512.911,3306.6 512.042,3306.63 512.042,3306.63C511.863,3304.75 510.476,3303.09 508.527,3302.71L501.048,3301.24C498.663,3300.79 496.394,3302.29 495.864,3304.68L495.631,3305.84C495.631,3305.84 494.303,3306.07 494.303,3306.07C493.865,3304.55 492.6,3303.27 490.926,3302.92L490.914,3303.04L490.914,3303.04L490.926,3302.92L483.447,3301.45C481.061,3301 478.793,3302.5 478.262,3304.89L478.319,3304.96C478.319,3304.96 478.262,3304.89 478.262,3304.89L478.169,3305.38L476.249,3305.26L476.015,3304.28C475.721,3303.13 475.062,3302.2 474.041,3301.57C473.019,3300.95 471.891,3300.78 470.738,3301.08L463.304,3302.88C462.152,3303.18 461.222,3303.84 460.597,3304.86C460.597,3304.86 460.597,3304.86 460.597,3304.86C460.139,3305.6 459.921,3306.42 459.941,3307.23C459.941,3307.23 459.071,3307.27 459.071,3307.27C458.893,3305.39 457.505,3303.72 455.557,3303.35L448.078,3301.87C445.693,3301.42 443.424,3302.92 442.893,3305.31L442.66,3306.47C442.66,3306.47 441.245,3306.72 441.245,3306.72C440.837,3305.18 439.552,3303.92 437.894,3303.58L430.497,3302.1C428.152,3301.61 425.843,3303.15 425.312,3305.54L424.761,3308.27C424.514,3309.4 424.768,3310.6 425.427,3311.53C426.046,3312.5 427.067,3313.12 428.198,3313.37L435.678,3314.85C436.013,3314.92 436.388,3314.94 436.719,3314.93C438.711,3314.85 440.442,3313.41 440.863,3311.41L441.198,3309.71C441.198,3309.71 442.405,3309.51 442.405,3309.51C442.7,3311.26 443.998,3312.76 445.862,3313.14L453.341,3314.62C453.676,3314.68 454.051,3314.71 454.382,3314.7C456.374,3314.62 458.105,3313.18 458.526,3311.17L458.724,3310.23C458.724,3310.23 460.598,3310.15 460.598,3310.15C460.598,3310.15 460.778,3310.84 460.778,3310.84C461.071,3311.99 461.731,3312.92 462.752,3313.55C462.752,3313.55 462.752,3313.55 462.752,3313.55C463.518,3314.01 464.358,3314.23 465.188,3314.2C465.188,3314.2 465.188,3314.2 465.188,3314.2C465.438,3314.19 465.772,3314.18 466.06,3314.04L473.489,3312.24C474.641,3311.94 475.57,3311.28 476.196,3310.26C476.196,3310.26 476.197,3310.26 476.197,3310.26C476.536,3309.64 476.794,3308.95 476.821,3308.26C476.821,3308.26 477.643,3308.3 477.643,3308.3C477.598,3309.22 477.866,3310.14 478.397,3310.89C479.017,3311.87 480.037,3312.49 481.168,3312.74L488.648,3314.21C488.983,3314.28 489.358,3314.31 489.69,3314.3C491.551,3314.22 493.184,3312.97 493.734,3311.16L493.852,3310.71L494.183,3309.07C494.183,3309.07 495.375,3308.88 495.375,3308.88C495.67,3310.63 496.968,3312.13 498.832,3312.51L506.311,3313.98C506.646,3314.05 507.021,3314.08 507.353,3314.07C509.344,3313.99 511.075,3312.55 511.496,3310.54L511.695,3309.59C511.695,3309.59 513.568,3309.52 513.568,3309.52C513.568,3309.52 513.748,3310.21 513.748,3310.21C514.042,3311.36 514.701,3312.29 515.722,3312.91C515.722,3312.91 515.722,3312.91 515.722,3312.91C516.488,3313.38 517.328,3313.6 518.158,3313.57C518.158,3313.57 518.158,3313.57 518.158,3313.57C518.409,3313.56 518.742,3313.54 519.03,3313.41L526.459,3311.61C527.611,3311.31 528.541,3310.65 529.166,3309.63C529.166,3309.63 529.167,3309.63 529.167,3309.63C529.507,3309.01 529.764,3308.32 529.791,3307.63C529.791,3307.63 530.572,3307.66 530.572,3307.66C530.524,3308.59 530.792,3309.52 531.326,3310.27C531.945,3311.24 532.966,3311.87 534.097,3312.12L541.576,3313.59C541.912,3313.66 542.287,3313.69 542.618,3313.67C543.872,3313.62 545.022,3313.04 545.807,3312.11C546.301,3311.55 546.66,3310.86 546.823,3310.08L547.153,3308.44C547.153,3308.44 548.303,3308.25 548.303,3308.25C548.599,3310.01 549.897,3311.5 551.761,3311.88L559.239,3313.36C559.574,3313.43 559.95,3313.45 560.281,3313.44C562.273,3313.37 564.004,3311.93 564.425,3309.92L564.623,3308.97C564.623,3308.97 566.496,3308.9 566.496,3308.9C566.496,3308.9 566.677,3309.58 566.677,3309.58C566.97,3310.74 567.63,3311.66 568.651,3312.29C568.651,3312.29 568.651,3312.29 568.651,3312.29C569.417,3312.76 570.257,3312.98 571.086,3312.94C571.086,3312.94 571.086,3312.94 571.087,3312.94C571.337,3312.93 571.671,3312.92 571.959,3312.78L579.387,3310.98C580.539,3310.69 581.469,3310.03 582.094,3309.01C582.095,3309.01 582.095,3309.01 582.096,3309.01C582.435,3308.39 582.693,3307.69 582.72,3307.01C582.72,3307.01 583.589,3307.04 583.589,3307.04C583.533,3309.1 585.012,3311.01 587.087,3311.42L594.565,3312.9C594.901,3312.97 595.276,3312.99 595.607,3312.98C597.599,3312.9 599.33,3311.47 599.751,3309.45L600.302,3306.73C600.714,3304.47 599.171,3302.16 596.825,3301.67L596.813,3301.78L596.813,3301.78L596.824,3301.67L589.345,3300.19C586.96,3299.74 584.691,3301.24 584.161,3303.63L584.218,3303.7C584.218,3303.7 584.16,3303.63 584.16,3303.63L584.068,3304.12L582.148,3304L581.914,3303.02C581.62,3301.87 580.96,3300.94 579.939,3300.32C578.918,3299.69 577.79,3299.53 576.637,3299.82L569.203,3301.63C568.051,3301.92 567.121,3302.58 566.495,3303.6C566.495,3303.6 566.495,3303.6 566.495,3303.6C566.037,3304.35 565.82,3305.17 565.84,3305.98C565.84,3305.98 564.97,3306.01 564.97,3306.01C564.791,3304.13 563.404,3302.47 561.456,3302.09L553.977,3300.62C551.591,3300.17 549.323,3301.67 548.792,3304.06L548.559,3305.22L547.274,3305.44C546.837,3303.92 545.571,3302.64 543.897,3302.29L543.885,3302.4L543.885,3302.4ZM596.804,3301.78C599.086,3302.26 600.588,3304.51 600.188,3306.7C600.188,3306.7 599.637,3309.43 599.637,3309.43C599.227,3311.39 597.542,3312.79 595.603,3312.86C595.28,3312.88 594.915,3312.85 594.589,3312.78L587.11,3311.31C585.072,3310.9 583.624,3309.02 583.707,3306.99C583.709,3306.96 583.684,3306.93 583.652,3306.93L582.666,3306.89C582.65,3306.89 582.635,3306.89 582.623,3306.9C582.612,3306.91 582.605,3306.93 582.605,3306.94C582.591,3307.63 582.334,3308.33 581.994,3308.95C581.386,3309.94 580.48,3310.58 579.359,3310.87C579.359,3310.87 571.925,3312.67 571.925,3312.67C571.922,3312.67 571.918,3312.68 571.914,3312.68C571.64,3312.81 571.321,3312.82 571.082,3312.83C570.274,3312.86 569.457,3312.65 568.712,3312.19C567.717,3311.58 567.075,3310.68 566.789,3309.55L566.597,3308.82C566.59,3308.8 566.566,3308.78 566.539,3308.78L564.573,3308.86C564.547,3308.86 564.524,3308.88 564.519,3308.9C564.519,3308.9 564.311,3309.89 564.311,3309.89C563.901,3311.85 562.216,3313.25 560.277,3313.33C559.954,3313.34 559.589,3313.31 559.263,3313.24L551.784,3311.77C549.949,3311.4 548.678,3309.91 548.409,3308.18C548.407,3308.16 548.398,3308.15 548.386,3308.14C548.373,3308.13 548.357,3308.13 548.342,3308.13L547.094,3308.34C547.07,3308.34 547.051,3308.36 547.047,3308.38L546.709,3310.06C546.55,3310.81 546.2,3311.49 545.719,3312.03C545.719,3312.03 545.719,3312.03 545.718,3312.03C544.954,3312.94 543.834,3313.51 542.614,3313.56C542.291,3313.57 541.926,3313.54 541.6,3313.47L534.121,3312C533.02,3311.76 532.026,3311.15 531.423,3310.21C531.423,3310.2 531.422,3310.2 531.422,3310.2C530.891,3309.45 530.631,3308.53 530.692,3307.61C530.693,3307.6 530.688,3307.58 530.677,3307.57C530.667,3307.56 530.652,3307.55 530.637,3307.55L529.737,3307.51C529.722,3307.51 529.706,3307.51 529.695,3307.53C529.684,3307.53 529.677,3307.55 529.677,3307.57C529.663,3308.25 529.406,3308.95 529.066,3309.57C528.457,3310.57 527.552,3311.21 526.43,3311.49C526.43,3311.49 518.997,3313.3 518.997,3313.3C518.993,3313.3 518.989,3313.3 518.986,3313.3C518.712,3313.43 518.393,3313.44 518.154,3313.45C517.346,3313.48 516.529,3313.27 515.783,3312.81C514.789,3312.2 514.147,3311.3 513.861,3310.18L513.669,3309.45C513.662,3309.42 513.637,3309.4 513.61,3309.4L511.645,3309.48C511.618,3309.48 511.596,3309.5 511.59,3309.53L511.382,3310.52C510.972,3312.47 509.287,3313.88 507.348,3313.95C507.025,3313.96 506.66,3313.94 506.334,3313.87L498.855,3312.39C497.02,3312.02 495.75,3310.53 495.48,3308.8C495.478,3308.79 495.47,3308.77 495.457,3308.76C495.445,3308.75 495.429,3308.75 495.414,3308.75L494.125,3308.97C494.101,3308.97 494.082,3308.99 494.077,3309.01L493.738,3310.69L493.623,3311.12C493.088,3312.88 491.498,3314.11 489.685,3314.18C489.363,3314.19 488.997,3314.17 488.671,3314.1L481.193,3312.62C480.092,3312.38 479.097,3311.78 478.495,3310.83C478.494,3310.83 478.494,3310.83 478.493,3310.83C477.965,3310.08 477.705,3309.16 477.763,3308.25C477.764,3308.23 477.759,3308.22 477.748,3308.2C477.738,3308.19 477.723,3308.18 477.707,3308.18L476.767,3308.14C476.751,3308.14 476.736,3308.15 476.725,3308.16C476.713,3308.17 476.707,3308.18 476.706,3308.2C476.693,3308.89 476.436,3309.58 476.096,3310.2C475.487,3311.2 474.581,3311.84 473.46,3312.12C473.46,3312.12 466.027,3313.93 466.027,3313.93C466.023,3313.93 466.019,3313.93 466.015,3313.93C465.742,3314.06 465.422,3314.08 465.183,3314.08C464.376,3314.12 463.558,3313.9 462.813,3313.45C461.818,3312.84 461.177,3311.93 460.891,3310.81L460.698,3310.08C460.691,3310.05 460.667,3310.03 460.64,3310.04L458.675,3310.11C458.648,3310.11 458.625,3310.13 458.62,3310.16C458.62,3310.16 458.412,3311.15 458.412,3311.15C458.002,3313.11 456.317,3314.51 454.378,3314.58C454.055,3314.6 453.69,3314.57 453.364,3314.5L445.885,3313.03C444.05,3312.65 442.779,3311.16 442.51,3309.43C442.508,3309.42 442.499,3309.41 442.487,3309.4C442.474,3309.39 442.459,3309.38 442.443,3309.39L441.14,3309.6C441.116,3309.6 441.097,3309.62 441.092,3309.65C441.092,3309.65 440.749,3311.38 440.749,3311.38C440.339,3313.34 438.654,3314.74 436.715,3314.81C436.392,3314.83 436.027,3314.8 435.701,3314.73L428.223,3313.26C427.122,3313.02 426.127,3312.41 425.524,3311.46C425.524,3311.46 425.523,3311.46 425.523,3311.46C424.882,3310.55 424.635,3309.39 424.875,3308.29L425.426,3305.56C425.943,3303.24 428.19,3301.74 430.474,3302.21L437.871,3303.69C439.502,3304.03 440.764,3305.28 441.146,3306.8C441.153,3306.83 441.182,3306.85 441.212,3306.84L442.72,3306.58C442.743,3306.58 442.762,3306.56 442.767,3306.53L443.007,3305.34C443.524,3303.01 445.733,3301.55 448.056,3301.99L455.535,3303.46C457.45,3303.83 458.808,3305.48 458.96,3307.33C458.963,3307.36 458.99,3307.39 459.021,3307.39L460.003,3307.35C460.035,3307.35 460.06,3307.32 460.059,3307.29C460.028,3306.48 460.239,3305.66 460.696,3304.92C461.305,3303.92 462.211,3303.28 463.332,3302.99L470.766,3301.19C471.888,3300.9 472.986,3301.06 473.98,3301.67C474.974,3302.28 475.616,3303.19 475.902,3304.31C475.902,3304.31 476.146,3305.32 476.146,3305.32C476.152,3305.35 476.173,3305.37 476.199,3305.37L478.217,3305.5C478.217,3305.5 478.266,3305.49 478.276,3305.44L478.376,3304.91C478.893,3302.59 481.102,3301.13 483.425,3301.56C483.425,3301.56 490.903,3303.04 490.903,3303.04L490.906,3303.04C492.552,3303.38 493.792,3304.65 494.205,3306.15C494.213,3306.18 494.241,3306.2 494.271,3306.2L495.69,3305.95C495.714,3305.94 495.732,3305.93 495.737,3305.9C495.737,3305.9 495.977,3304.7 495.977,3304.7C496.494,3302.38 498.704,3300.92 501.027,3301.35L508.505,3302.83C510.42,3303.2 511.778,3304.84 511.931,3306.7C511.933,3306.73 511.96,3306.75 511.991,3306.75L512.973,3306.72C513.005,3306.71 513.031,3306.69 513.029,3306.65C512.998,3305.85 513.21,3305.03 513.666,3304.28C514.275,3303.29 515.181,3302.65 516.303,3302.36L523.737,3300.56C524.858,3300.27 525.956,3300.43 526.95,3301.04C527.944,3301.65 528.586,3302.55 528.872,3303.68C528.872,3303.68 529.116,3304.69 529.116,3304.69C529.122,3304.72 529.144,3304.73 529.169,3304.74L531.165,3304.86C531.165,3304.86 531.214,3304.86 531.224,3304.8L531.325,3304.31C531.465,3303.67 531.734,3303.1 532.097,3302.61C532.098,3302.61 532.098,3302.61 532.098,3302.61C533.057,3301.31 534.696,3300.61 536.395,3300.93C536.395,3300.93 543.873,3302.4 543.873,3302.4L543.876,3302.4C545.523,3302.75 546.764,3304.02 547.176,3305.52C547.184,3305.55 547.212,3305.57 547.242,3305.56L548.618,3305.32C548.642,3305.32 548.661,3305.3 548.665,3305.28L548.906,3304.08C549.423,3301.75 551.632,3300.29 553.955,3300.73L561.433,3302.2C563.349,3302.57 564.707,3304.22 564.859,3306.08C564.862,3306.11 564.888,3306.13 564.919,3306.13L565.902,3306.09C565.934,3306.09 565.959,3306.06 565.958,3306.03C565.927,3305.22 566.138,3304.41 566.595,3303.66C567.204,3302.67 568.109,3302.03 569.231,3301.74L576.665,3299.93C577.787,3299.65 578.885,3299.81 579.879,3300.42C580.873,3301.03 581.515,3301.93 581.801,3303.05C581.801,3303.05 582.045,3304.07 582.045,3304.07C582.051,3304.09 582.072,3304.11 582.098,3304.11L584.115,3304.24C584.115,3304.24 584.165,3304.23 584.175,3304.18L584.275,3303.66C584.792,3301.33 587.001,3299.87 589.324,3300.31C589.324,3300.31 596.802,3301.78 596.802,3301.78L596.804,3301.78ZM438.053,3310.86L438.234,3310.24C438.239,3310.22 438.235,3310.2 438.222,3310.18C438.209,3310.17 438.189,3310.16 438.17,3310.16L436.908,3310.34L436.747,3310.34C436.04,3310.37 435.431,3309.88 435.325,3309.18C435.216,3308.4 435.701,3307.71 436.483,3307.6L438.441,3307.28C438.458,3307.28 438.474,3307.26 438.482,3307.25C438.491,3307.23 438.492,3307.21 438.484,3307.2C438.297,3306.78 437.904,3306.49 437.43,3306.38L429.949,3304.91C429.176,3304.77 428.385,3305.27 428.203,3306.08L427.653,3308.81C427.541,3309.2 427.68,3309.58 427.863,3309.91C427.865,3309.91 427.867,3309.91 427.869,3309.92C428.135,3310.25 428.439,3310.45 428.824,3310.56L436.307,3312.03C437.123,3312.21 437.871,3311.68 438.053,3310.86L438.053,3310.86ZM437.941,3310.83C437.941,3310.83 437.94,3310.83 437.94,3310.83C437.773,3311.59 437.085,3312.09 436.331,3311.92L428.854,3310.45C428.496,3310.34 428.213,3310.16 427.964,3309.85L427.962,3309.85C427.795,3309.54 427.662,3309.2 427.765,3308.84L428.317,3306.11C428.485,3305.35 429.214,3304.89 429.928,3305.02C429.928,3305.02 437.404,3306.5 437.404,3306.5C437.815,3306.59 438.162,3306.83 438.345,3307.18C438.345,3307.18 436.466,3307.48 436.466,3307.48C435.618,3307.6 435.092,3308.35 435.21,3309.2C435.21,3309.2 435.21,3309.2 435.21,3309.2C435.325,3309.96 435.985,3310.49 436.752,3310.46L436.921,3310.45L438.097,3310.29C438.097,3310.29 437.941,3310.83 437.941,3310.83ZM445.794,3306.1L445.826,3305.9C445.826,3305.9 445.884,3305.97 445.884,3305.97L445.827,3305.89C446.008,3305.08 446.8,3304.58 447.572,3304.72L455.051,3306.19C455.695,3306.3 456.146,3306.88 456.214,3307.51C456.215,3307.53 456.21,3307.55 456.2,3307.56C456.189,3307.57 456.174,3307.58 456.158,3307.58C456.158,3307.58 454.193,3307.65 454.193,3307.65C453.408,3307.68 452.845,3308.37 452.913,3309.12C452.981,3309.86 453.594,3310.43 454.343,3310.44L455.651,3310.39C455.623,3310.39 455.6,3310.41 455.596,3310.44L455.654,3310.51L455.711,3310.46L455.679,3310.66C455.678,3310.66 455.678,3310.67 455.677,3310.67L455.677,3310.67C455.496,3311.49 454.705,3311.99 453.932,3311.85L446.453,3310.37C445.811,3310.27 445.36,3309.69 445.252,3309.1C445.25,3309.08 445.253,3309.07 445.263,3309.05C445.272,3309.04 445.286,3309.03 445.302,3309.03C445.302,3309.03 447.382,3308.74 447.382,3308.74C448.164,3308.64 448.649,3307.95 448.54,3307.16C448.431,3306.38 447.743,3305.9 446.96,3306.01L445.857,3306.17C445.854,3306.17 445.851,3306.17 445.851,3306.17L445.794,3306.1ZM455.585,3310.51L455.563,3310.65C455.394,3311.4 454.665,3311.86 453.953,3311.73L446.473,3310.26C445.901,3310.16 445.497,3309.66 445.379,3309.14L447.398,3308.86C448.246,3308.74 448.773,3308 448.655,3307.15C448.655,3307.15 448.655,3307.15 448.655,3307.15C448.537,3306.3 447.793,3305.77 446.944,3305.89L445.921,3306.04L445.941,3305.92C446.11,3305.16 446.839,3304.7 447.551,3304.83L455.031,3306.31C455.603,3306.4 456.007,3306.9 456.09,3307.46C456.09,3307.46 454.188,3307.54 454.188,3307.54C453.335,3307.57 452.723,3308.32 452.797,3309.13C452.797,3309.13 452.797,3309.13 452.797,3309.13C452.871,3309.93 453.533,3310.55 454.343,3310.56L455.585,3310.51ZM482.562,3308.62L482.562,3308.62L482.402,3308.62L480.648,3308.49C480.632,3308.48 480.615,3308.49 480.603,3308.5C480.591,3308.51 480.585,3308.53 480.586,3308.55C480.605,3308.8 480.709,3309.05 480.833,3309.28C480.835,3309.28 480.837,3309.28 480.839,3309.28C481.106,3309.61 481.409,3309.81 481.794,3309.93L489.277,3311.4C490.06,3311.57 490.78,3311.09 490.998,3310.33L491.144,3309.61C491.148,3309.59 491.142,3309.57 491.129,3309.56C491.117,3309.55 491.098,3309.54 491.079,3309.54L489.879,3309.7L489.717,3309.71C489.01,3309.74 488.401,3309.25 488.295,3308.55C488.187,3307.76 488.671,3307.08 489.453,3306.97L491.363,3306.65C491.383,3306.65 491.399,3306.64 491.407,3306.62C491.415,3306.6 491.414,3306.58 491.404,3306.57C491.373,3306.51 491.338,3306.46 491.298,3306.41C491.032,3306.09 490.728,3305.89 490.343,3305.78L482.859,3304.3C482.58,3304.25 482.297,3304.28 482.043,3304.38C482.042,3304.38 482.041,3304.38 482.04,3304.38C481.62,3304.57 481.284,3304.95 481.173,3305.45L481.23,3305.52C481.23,3305.52 481.173,3305.45 481.173,3305.45L481.126,3305.69C481.126,3305.69 481.183,3305.76 481.183,3305.76C481.181,3305.76 481.18,3305.76 481.179,3305.76L482.612,3305.86C483.364,3305.95 483.939,3306.56 483.891,3307.35C483.839,3308.06 483.27,3308.59 482.563,3308.62L482.562,3308.62ZM480.709,3308.61L482.401,3308.74L482.567,3308.73C483.334,3308.7 483.951,3308.12 484.007,3307.35C484.007,3307.35 484.007,3307.35 484.007,3307.35C484.059,3306.5 483.438,3305.84 482.625,3305.74L481.253,3305.64L481.287,3305.47C481.389,3305.02 481.699,3304.67 482.087,3304.49C482.321,3304.4 482.581,3304.37 482.838,3304.41C482.838,3304.41 490.313,3305.89 490.313,3305.89C490.673,3305.99 490.958,3306.18 491.208,3306.49L491.256,3306.55L489.436,3306.85C488.589,3306.97 488.062,3307.71 488.18,3308.56C488.18,3308.56 488.18,3308.56 488.18,3308.56C488.295,3309.33 488.955,3309.86 489.722,3309.83L489.891,3309.82L491.014,3309.67L490.886,3310.29C490.684,3310.99 490.023,3311.45 489.301,3311.29L481.824,3309.81C481.466,3309.71 481.183,3309.52 480.934,3309.22L480.933,3309.22C480.829,3309.03 480.739,3308.82 480.709,3308.61ZM463.452,3310C463.451,3309.99 463.45,3309.99 463.45,3309.99C463.449,3309.95 463.473,3309.93 463.504,3309.93L464.937,3309.83C465.722,3309.8 466.284,3309.11 466.217,3308.37C466.217,3308.36 466.217,3308.36 466.217,3308.36C466.186,3307.58 465.496,3307.01 464.752,3307.08L462.909,3307.19C462.894,3307.2 462.878,3307.19 462.867,3307.18C462.855,3307.17 462.848,3307.15 462.848,3307.14C462.838,3306.88 462.913,3306.62 463.073,3306.36C463.074,3306.36 463.075,3306.36 463.075,3306.36C463.317,3306.01 463.606,3305.78 464.027,3305.68L471.461,3303.88C471.465,3303.88 471.469,3303.88 471.473,3303.88C471.554,3303.87 471.676,3303.83 471.757,3303.83C472.013,3303.82 472.356,3303.89 472.619,3304.05C472.62,3304.05 472.62,3304.05 472.621,3304.05C472.97,3304.29 473.193,3304.58 473.295,3305L473.338,3305.11C473.358,3305.16 473.302,3305.19 473.288,3305.19L473.285,3305.19C473.285,3305.19 473.283,3305.19 473.28,3305.19L472.089,3305.12C471.3,3305.07 470.693,3305.64 470.603,3306.39C470.555,3307.18 471.131,3307.79 471.882,3307.88L473.937,3308.05C473.957,3308.05 473.974,3308.06 473.984,3308.08C473.993,3308.09 473.993,3308.12 473.984,3308.13C473.928,3308.23 473.903,3308.35 473.867,3308.45C473.828,3308.58 473.778,3308.7 473.675,3308.81C473.434,3309.16 473.145,3309.38 472.726,3309.48L465.29,3311.28C464.485,3311.44 463.659,3311 463.5,3310.2L463.452,3310ZM498.821,3305.54C498.821,3305.54 498.764,3305.47 498.764,3305.47L498.796,3305.26C498.796,3305.26 498.854,3305.33 498.854,3305.33L498.797,3305.26C498.978,3304.45 499.77,3303.95 500.543,3304.09L508.021,3305.56C508.665,3305.66 509.117,3306.24 509.184,3306.88C509.185,3306.9 509.18,3306.91 509.17,3306.93C509.159,3306.94 509.144,3306.94 509.128,3306.95C509.128,3306.95 507.163,3307.02 507.163,3307.02C506.378,3307.05 505.816,3307.74 505.883,3308.49C505.952,3309.23 506.564,3309.8 507.313,3309.81L508.622,3309.76C508.593,3309.76 508.571,3309.78 508.566,3309.81L508.624,3309.88L508.681,3309.83L508.649,3310.03C508.649,3310.03 508.648,3310.03 508.647,3310.04L508.648,3310.04C508.466,3310.85 507.675,3311.35 506.902,3311.21L499.424,3309.74C498.781,3309.63 498.33,3309.06 498.223,3308.46C498.22,3308.45 498.223,3308.43 498.233,3308.42C498.242,3308.41 498.256,3308.4 498.272,3308.4C498.272,3308.4 500.352,3308.11 500.352,3308.11C501.135,3308 501.619,3307.31 501.51,3306.53C501.401,3305.75 500.713,3305.26 499.93,3305.37L498.821,3305.54ZM473.198,3305.07L473.184,3305.03C473.184,3305.03 473.239,3305.07 473.239,3305.07L473.182,3305.03C473.088,3304.64 472.88,3304.37 472.557,3304.15C472.314,3304 471.997,3303.93 471.762,3303.94C471.682,3303.94 471.565,3303.99 471.483,3303.99L464.055,3305.8C463.664,3305.89 463.396,3306.1 463.172,3306.42C463.037,3306.64 462.967,3306.86 462.964,3307.07C462.964,3307.07 464.743,3306.97 464.743,3306.97C465.551,3306.89 466.299,3307.5 466.333,3308.36C466.405,3309.16 465.795,3309.91 464.943,3309.95L463.58,3310.04L463.614,3310.18L463.615,3310.18C463.765,3310.92 464.527,3311.32 465.266,3311.17L472.698,3309.37C473.09,3309.27 473.357,3309.06 473.582,3308.74C473.571,3308.75 473.569,3308.77 473.575,3308.79C473.599,3308.78 473.613,3308.8 473.622,3308.81L473.587,3308.73C473.679,3308.63 473.722,3308.53 473.756,3308.42C473.785,3308.33 473.808,3308.24 473.844,3308.16L471.869,3308C471.056,3307.9 470.434,3307.24 470.487,3306.39C470.487,3306.39 470.487,3306.38 470.487,3306.38C470.584,3305.57 471.242,3304.95 472.096,3305L473.198,3305.07ZM508.555,3309.88L508.533,3310.01C508.364,3310.77 507.636,3311.23 506.923,3311.1L499.443,3309.62C498.871,3309.53 498.467,3309.03 498.349,3308.5L500.368,3308.23C501.216,3308.11 501.743,3307.36 501.625,3306.51C501.625,3306.51 501.625,3306.51 501.625,3306.51C501.507,3305.67 500.763,3305.14 499.914,3305.26L498.891,3305.41L498.911,3305.28C499.08,3304.53 499.809,3304.07 500.522,3304.2L508.002,3305.68C508.574,3305.77 508.977,3306.27 509.06,3306.83C509.06,3306.83 507.158,3306.9 507.158,3306.9C506.305,3306.94 505.694,3307.69 505.767,3308.49C505.767,3308.49 505.767,3308.49 505.767,3308.49C505.841,3309.3 506.503,3309.91 507.313,3309.93L508.555,3309.88ZM535.372,3307.99L533.607,3307.85C533.591,3307.85 533.574,3307.86 533.562,3307.87C533.55,3307.88 533.544,3307.89 533.545,3307.91C533.556,3308.2 533.647,3308.47 533.8,3308.7C533.802,3308.7 533.803,3308.7 533.805,3308.71C534.062,3309.01 534.356,3309.2 534.723,3309.3L542.206,3310.78C543.023,3310.96 543.771,3310.42 543.952,3309.6C543.947,3309.63 543.923,3309.65 543.896,3309.65C543.896,3309.65 543.94,3309.64 543.954,3309.6L544.068,3309.2L544.068,3309.2C544.069,3309.2 544.07,3309.2 544.071,3309.19L544.113,3308.98L544.056,3309.03L543.999,3308.96C544.004,3308.93 544.023,3308.91 544.049,3308.91L542.807,3309.08L542.646,3309.09C541.939,3309.11 541.33,3308.63 541.224,3307.92C541.115,3307.14 541.599,3306.45 542.382,3306.34L544.335,3306.02C544.354,3306.02 544.371,3306.01 544.379,3305.99C544.387,3305.97 544.386,3305.95 544.376,3305.93C544.345,3305.88 544.309,3305.83 544.269,3305.78C544.002,3305.45 543.698,3305.25 543.314,3305.14L535.83,3303.67C535.384,3303.59 534.932,3303.72 534.595,3304C534.595,3304 534.594,3304 534.594,3304C534.356,3304.21 534.177,3304.49 534.102,3304.83L534.159,3304.9C534.159,3304.9 534.102,3304.83 534.102,3304.83L534.057,3305.05C534.057,3305.05 534.114,3305.12 534.114,3305.12C534.113,3305.12 534.111,3305.12 534.11,3305.12L535.582,3305.23C536.334,3305.32 536.909,3305.92 536.861,3306.71C536.81,3307.42 536.244,3307.95 535.54,3307.98C535.538,3307.98 535.534,3307.98 535.53,3307.98L535.372,3307.99ZM533.665,3307.97L535.371,3308.11L535.537,3308.1C536.304,3308.07 536.922,3307.49 536.977,3306.72C536.977,3306.72 536.977,3306.72 536.977,3306.72C537.03,3305.87 536.408,3305.21 535.595,3305.11L534.184,3305.01L534.216,3304.85C534.285,3304.54 534.45,3304.28 534.67,3304.09C534.981,3303.83 535.398,3303.71 535.809,3303.78C535.809,3303.78 543.283,3305.26 543.283,3305.26C543.644,3305.36 543.928,3305.55 544.178,3305.86L544.228,3305.92L542.365,3306.23C541.517,3306.35 540.991,3307.09 541.109,3307.94C541.109,3307.94 541.109,3307.94 541.109,3307.94C541.224,3308.7 541.884,3309.23 542.65,3309.2L542.82,3309.2L543.983,3309.04L543.956,3309.17L543.84,3309.57C543.84,3309.57 543.896,3309.65 543.896,3309.65C543.878,3309.65 543.861,3309.64 543.85,3309.62C543.839,3309.61 543.835,3309.59 543.839,3309.58C543.671,3310.33 542.983,3310.83 542.23,3310.66L534.753,3309.19C534.411,3309.09 534.138,3308.92 533.898,3308.64L533.896,3308.63C533.767,3308.44 533.686,3308.21 533.665,3307.97ZM516.422,3309.36C516.421,3309.36 516.42,3309.36 516.42,3309.35C516.419,3309.32 516.443,3309.29 516.475,3309.29L517.907,3309.2C518.692,3309.17 519.255,3308.48 519.187,3307.73C519.187,3307.73 519.187,3307.73 519.187,3307.73C519.156,3306.94 518.467,3306.38 517.723,3306.45L515.88,3306.56C515.864,3306.56 515.849,3306.56 515.837,3306.55C515.826,3306.54 515.819,3306.52 515.818,3306.51C515.808,3306.25 515.883,3305.99 516.044,3305.73C516.044,3305.72 516.045,3305.72 516.045,3305.72C516.287,3305.37 516.577,3305.15 516.998,3305.05L524.431,3303.24C524.435,3303.24 524.439,3303.24 524.443,3303.24C524.525,3303.24 524.646,3303.2 524.728,3303.19C524.983,3303.18 525.327,3303.25 525.589,3303.41C525.59,3303.41 525.591,3303.41 525.592,3303.42C525.94,3303.66 526.163,3303.95 526.265,3304.36L526.308,3304.48C526.328,3304.53 526.272,3304.56 526.258,3304.56L526.255,3304.56C526.255,3304.56 526.253,3304.56 526.25,3304.56L525.059,3304.48C524.27,3304.44 523.663,3305.01 523.573,3305.76C523.526,3306.55 524.101,3307.16 524.852,3307.25L526.908,3307.41C526.927,3307.41 526.945,3307.43 526.954,3307.44C526.963,3307.46 526.963,3307.48 526.954,3307.5C526.898,3307.6 526.873,3307.71 526.837,3307.82C526.799,3307.94 526.749,3308.06 526.645,3308.18C526.404,3308.52 526.116,3308.74 525.696,3308.85L518.26,3310.65C517.455,3310.81 516.629,3310.37 516.47,3309.57L516.422,3309.36ZM551.693,3304.85L551.725,3304.64C551.725,3304.64 551.782,3304.71 551.782,3304.71L551.726,3304.64C551.907,3303.82 552.698,3303.32 553.471,3303.46L560.95,3304.94C561.594,3305.04 562.045,3305.62 562.112,3306.26C562.114,3306.27 562.109,3306.29 562.098,3306.3C562.088,3306.31 562.073,3306.32 562.057,3306.32C562.057,3306.32 560.091,3306.4 560.091,3306.4C559.306,3306.43 558.744,3307.12 558.812,3307.86C558.88,3308.61 559.493,3309.18 560.242,3309.19L561.55,3309.14C561.522,3309.14 561.499,3309.16 561.495,3309.18L561.552,3309.25L561.61,3309.2L561.578,3309.41C561.577,3309.41 561.577,3309.41 561.576,3309.41L561.576,3309.41C561.395,3310.23 560.603,3310.73 559.831,3310.59L552.352,3309.11C551.709,3309.01 551.259,3308.43 551.151,3307.84C551.148,3307.83 551.152,3307.81 551.161,3307.8C551.171,3307.78 551.185,3307.78 551.201,3307.77C551.201,3307.77 553.28,3307.49 553.28,3307.49C554.063,3307.38 554.547,3306.69 554.439,3305.91C554.33,3305.12 553.642,3304.64 552.859,3304.75L551.756,3304.91C551.752,3304.91 551.75,3304.91 551.75,3304.91L551.693,3304.85ZM526.169,3304.44L525.066,3304.37C524.212,3304.32 523.554,3304.94 523.457,3305.75C523.457,3305.75 523.457,3305.75 523.457,3305.75C523.405,3306.61 524.026,3307.27 524.839,3307.36L526.814,3307.52C526.778,3307.61 526.755,3307.7 526.727,3307.79C526.692,3307.89 526.649,3308 526.558,3308.1L526.6,3308.2L526.545,3308.16C526.539,3308.14 526.542,3308.12 526.552,3308.11C526.328,3308.43 526.06,3308.64 525.669,3308.73L518.236,3310.54C517.497,3310.68 516.736,3310.29 516.586,3309.55L516.585,3309.55L516.551,3309.4L517.913,3309.31C518.765,3309.28 519.376,3308.53 519.303,3307.72C519.269,3306.87 518.521,3306.26 517.713,3306.33C517.713,3306.33 515.934,3306.44 515.934,3306.44C515.938,3306.23 516.008,3306.01 516.142,3305.79C516.367,3305.47 516.634,3305.26 517.025,3305.16L524.454,3303.36C524.535,3303.35 524.653,3303.31 524.732,3303.31C524.968,3303.3 525.285,3303.37 525.527,3303.51C525.851,3303.74 526.059,3304.01 526.153,3304.39L526.209,3304.44C526.209,3304.44 526.155,3304.4 526.155,3304.4L526.169,3304.44ZM561.484,3309.26L561.462,3309.39C561.293,3310.14 560.564,3310.6 559.852,3310.47L552.372,3309C551.799,3308.91 551.396,3308.41 551.278,3307.88L553.296,3307.6C554.145,3307.49 554.672,3306.74 554.554,3305.89C554.554,3305.89 554.554,3305.89 554.554,3305.89C554.436,3305.04 553.691,3304.52 552.842,3304.63L551.82,3304.79L551.84,3304.66C552.009,3303.91 552.738,3303.45 553.45,3303.58L560.93,3305.05C561.502,3305.14 561.905,3305.65 561.989,3306.21C561.989,3306.21 560.087,3306.28 560.087,3306.28C559.234,3306.31 558.622,3307.06 558.696,3307.87C558.696,3307.87 558.696,3307.87 558.696,3307.87C558.77,3308.68 559.432,3309.29 560.241,3309.3L561.484,3309.26ZM588.461,3307.36L588.301,3307.37C588.301,3307.37 586.536,3307.23 586.536,3307.23C586.519,3307.23 586.503,3307.23 586.491,3307.24C586.479,3307.26 586.472,3307.27 586.473,3307.29C586.5,3307.97 586.992,3308.59 587.68,3308.73L595.159,3310.21C595.976,3310.39 596.724,3309.85 596.906,3309.03L597.457,3306.3C597.457,3306.3 597.457,3306.3 597.457,3306.3C597.526,3305.87 597.467,3305.49 597.197,3305.16C596.93,3304.83 596.627,3304.63 596.242,3304.52L588.758,3303.04C587.985,3302.9 587.194,3303.4 587.012,3304.22L587.069,3304.29C587.069,3304.29 587.012,3304.22 587.012,3304.22L586.979,3304.43C586.979,3304.43 587.036,3304.5 587.036,3304.5C587.035,3304.5 587.034,3304.5 587.032,3304.5L588.511,3304.6C589.262,3304.69 589.838,3305.3 589.79,3306.09C589.738,3306.8 589.168,3307.33 588.461,3307.36ZM587.104,3304.39L587.127,3304.24C587.296,3303.49 588.025,3303.03 588.737,3303.16C588.737,3303.16 596.212,3304.63 596.212,3304.63C596.572,3304.74 596.857,3304.92 597.107,3305.23C597.354,3305.54 597.405,3305.89 597.342,3306.28L597.342,3306.28L596.792,3309.01C596.624,3309.76 595.937,3310.26 595.183,3310.09L587.704,3308.62C587.091,3308.49 586.646,3307.95 586.594,3307.35L588.3,3307.48L588.466,3307.47C589.233,3307.45 589.85,3306.87 589.906,3306.1C589.906,3306.1 589.906,3306.1 589.906,3306.1C589.958,3305.24 589.337,3304.58 588.523,3304.49L587.104,3304.39ZM569.35,3308.74C569.349,3308.74 569.349,3308.73 569.349,3308.73C569.348,3308.7 569.372,3308.67 569.403,3308.67L570.836,3308.57C571.621,3308.54 572.183,3307.85 572.115,3307.11C572.115,3307.11 572.115,3307.11 572.115,3307.11C572.085,3306.32 571.395,3305.76 570.651,3305.83L568.808,3305.94C568.793,3305.94 568.777,3305.93 568.766,3305.92C568.754,3305.91 568.747,3305.9 568.747,3305.88C568.737,3305.63 568.811,3305.37 568.972,3305.1C568.973,3305.1 568.973,3305.1 568.974,3305.1C569.216,3304.75 569.505,3304.53 569.926,3304.43L577.36,3302.62C577.364,3302.62 577.367,3302.62 577.371,3302.62C577.453,3302.62 577.575,3302.57 577.656,3302.57C577.912,3302.56 578.255,3302.63 578.517,3302.79C578.518,3302.79 578.519,3302.79 578.52,3302.79C578.869,3303.03 579.092,3303.32 579.193,3303.74L579.237,3303.86C579.256,3303.91 579.201,3303.93 579.187,3303.94L579.184,3303.94C579.184,3303.94 579.182,3303.94 579.178,3303.94L577.988,3303.86C577.199,3303.81 576.592,3304.39 576.502,3305.14C576.454,3305.93 577.03,3306.53 577.781,3306.62L579.836,3306.79C579.856,3306.79 579.873,3306.8 579.883,3306.82C579.892,3306.84 579.892,3306.86 579.882,3306.88C579.826,3306.98 579.801,3307.09 579.766,3307.2C579.727,3307.32 579.677,3307.44 579.574,3307.55C579.333,3307.9 579.044,3308.12 578.625,3308.22L571.188,3310.03C570.384,3310.19 569.558,3309.75 569.399,3308.94L569.35,3308.74ZM579.097,3303.82L579.083,3303.78C579.083,3303.78 579.138,3303.82 579.138,3303.82L579.081,3303.77C578.987,3303.38 578.779,3303.11 578.455,3302.89C578.213,3302.74 577.896,3302.68 577.661,3302.68C577.581,3302.69 577.464,3302.73 577.382,3302.74L569.953,3304.54C569.563,3304.63 569.295,3304.84 569.071,3305.16C568.936,3305.39 568.866,3305.6 568.862,3305.82C568.862,3305.82 570.642,3305.71 570.642,3305.71C571.449,3305.64 572.198,3306.25 572.232,3307.1C572.304,3307.91 571.694,3308.66 570.841,3308.69L569.479,3308.78L569.513,3308.93L569.514,3308.93C569.664,3309.66 570.426,3310.06 571.165,3309.91L578.597,3308.11C578.988,3308.02 579.256,3307.81 579.481,3307.48C579.47,3307.5 579.468,3307.52 579.474,3307.53C579.498,3307.53 579.512,3307.54 579.52,3307.56L579.486,3307.48C579.578,3307.38 579.621,3307.27 579.655,3307.16C579.684,3307.07 579.707,3306.99 579.742,3306.9L577.768,3306.74C576.955,3306.64 576.333,3305.98 576.386,3305.13C576.386,3305.13 576.386,3305.13 576.386,3305.13C576.482,3304.31 577.141,3303.69 577.995,3303.74L579.097,3303.82ZM473.578,3308.8L473.578,3308.8C473.588,3308.82 473.608,3308.83 473.63,3308.83C473.627,3308.83 473.59,3308.81 473.578,3308.8ZM526.545,3308.16L526.6,3308.2C526.579,3308.2 526.559,3308.18 526.549,3308.17C526.547,3308.16 526.546,3308.16 526.545,3308.16ZM579.477,3307.54L579.477,3307.54C579.487,3307.56 579.507,3307.57 579.529,3307.57C579.526,3307.57 579.489,3307.55 579.477,3307.54ZM490.914,3303.04C490.913,3303.03 490.896,3302.92 490.881,3302.93C490.824,3302.97 490.91,3303.03 490.914,3303.04ZM543.885,3302.4C543.884,3302.4 543.866,3302.29 543.851,3302.3C543.794,3302.34 543.88,3302.4 543.885,3302.4ZM596.813,3301.78C596.812,3301.78 596.795,3301.66 596.78,3301.68C596.723,3301.72 596.809,3301.78 596.813,3301.78Z" style="fill:url(#_Linear1);"/>
            </g>
        </g>
    </g>
    <defs>
        <linearGradient id="_Linear1" x1="0" y1="0" x2="1" y2="0" gradientUnits="userSpaceOnUse" gradientTransform="matrix(-175.295,2.14674e-14,-2.14674e-14,-175.295,600.368,3307.31)"><stop offset="0" style="stop-color:rgb(116,213,191);stop-opacity:0.5"/><stop offset="1" style="stop-color:black;stop-opacity:0.5"/></linearGradient>
    </defs>
</svg>
