<svg width="80" height="81" viewBox="0 0 80 81" fill="none" xmlns="http://www.w3.org/2000/svg">
<g id="DAO_Members 1" clip-path="url(#clip0_167_14876)">
<g id="Group" opacity="0.1">
<path id="Vector" d="M45.625 63.625H44.375C44.375 62.4647 43.9141 61.3519 43.0936 60.5314C42.2731 59.7109 41.1603 59.25 40 59.25C38.8397 59.25 37.7269 59.7109 36.9064 60.5314C36.0859 61.3519 35.625 62.4647 35.625 63.625H34.375C34.375 62.1332 34.9676 60.7024 36.0225 59.6475C37.0774 58.5926 38.5082 58 40 58C41.4918 58 42.9226 58.5926 43.9775 59.6475C45.0324 60.7024 45.625 62.1332 45.625 63.625Z" fill="url(#paint0_linear_167_14876)"/>
</g>
<g id="Group_2" opacity="0.325">
<path id="Vector_2" d="M49.8438 60.5435C49.4816 60.8806 49.1472 61.2463 48.8438 61.6372C48.3543 59.4611 47.0797 57.5419 45.2637 56.2468C43.4478 54.9516 41.2181 54.3716 39.0012 54.6177C36.7843 54.8637 34.7361 55.9186 33.2483 57.5804C31.7606 59.2422 30.9378 61.3942 30.9375 63.6247H29.6875C29.6878 61.1596 30.571 58.7761 32.1771 56.906C33.7832 55.036 36.006 53.803 38.4428 53.4305C40.8796 53.058 43.3692 53.5706 45.4606 54.8754C47.5521 56.1802 49.107 58.191 49.8438 60.5435Z" fill="url(#paint1_linear_167_14876)"/>
</g>
<g id="Group_3" opacity="0.55">
<path id="Vector_3" d="M54.0063 58.2688C53.5994 58.3688 53.2005 58.4983 52.8125 58.6563C51.654 55.665 49.4858 53.1731 46.6834 51.6122C43.881 50.0512 40.6209 49.5197 37.4678 50.1095C34.3146 50.6993 31.4671 52.3734 29.4184 54.8417C27.3697 57.3101 26.2489 60.4173 26.25 63.6251H25C24.9993 60.1195 26.2267 56.7244 28.4689 54.0297C30.7112 51.335 33.8265 49.5109 37.2738 48.8744C40.7211 48.2378 44.2825 48.829 47.3392 50.5452C50.396 52.2614 52.7549 54.9942 54.0063 58.2688Z" fill="url(#paint2_linear_167_14876)"/>
</g>
<g id="Group_4" opacity="0.775">
<path id="Vector_4" d="M57.3313 54.2939C56.9982 54.5695 56.6811 54.8637 56.3812 55.1752C54.4873 51.5011 51.4136 48.5702 47.6536 46.8532C43.8937 45.1362 39.6657 44.7327 35.6489 45.7076C31.632 46.6824 28.0594 48.979 25.5047 52.2284C22.9501 55.4779 21.5617 59.4917 21.5625 63.6251H20.3125C20.3118 59.2412 21.7746 54.9825 24.4689 51.5243C27.1632 48.066 30.9348 45.6061 35.1858 44.5346C39.4368 43.463 43.9238 43.8412 47.9354 45.6091C51.9471 47.377 55.2538 50.4335 57.3313 54.2939Z" fill="url(#paint3_linear_167_14876)"/>
</g>
<path id="Vector_5" d="M60.6812 50.7563C60.9062 51.1 61.1063 51.4438 61.3 51.8C60.9188 51.9688 60.5438 52.15 60.1813 52.3438C57.6849 47.8759 53.7766 44.3625 49.0691 42.3543C44.3615 40.3461 39.1207 39.9566 34.168 41.2467C29.2153 42.5369 24.8306 45.4339 21.7011 49.4837C18.5716 53.5334 16.8743 58.507 16.875 63.625H15.625V63.4563C15.6504 58.9597 16.9296 54.5594 19.3187 50.75C19.65 50.2063 20.0125 49.6813 20.3938 49.1688C21.2133 48.0493 22.1316 47.0056 23.1375 46.05C23.5313 45.6688 23.9375 45.3 24.3625 44.95C25.3546 44.1117 26.4145 43.357 27.5312 42.6938C28 42.4126 28.475 42.1501 28.9563 41.9063C32.3758 40.1603 36.1605 39.25 40 39.25C43.8395 39.25 47.6242 40.1603 51.0437 41.9063C51.525 42.15 52 42.4125 52.4688 42.6938C53.5855 43.357 54.6454 44.1117 55.6375 44.95C56.0625 45.3 56.4688 45.6688 56.8625 46.05C57.8649 47.0066 58.7829 48.048 59.6063 49.1625C59.9875 49.6813 60.35 50.2125 60.6812 50.7563Z" fill="url(#paint4_linear_167_14876)"/>
<path id="Vector_6" d="M64.3749 63.4561V63.6248H64.2437C64.2874 63.5685 64.3312 63.5122 64.3749 63.4561Z" fill="url(#paint5_linear_167_14876)"/>
<path id="Vector_7" d="M40 14.25C37.8368 14.25 35.7221 14.8915 33.9235 16.0933C32.1248 17.2951 30.7229 19.0033 29.8951 21.0019C29.0672 23.0005 28.8506 25.1996 29.2727 27.3213C29.6947 29.443 30.7364 31.3918 32.266 32.9215C33.7957 34.4511 35.7445 35.4928 37.8662 35.9148C39.9879 36.3369 42.187 36.1203 44.1856 35.2924C46.1842 34.4646 47.8924 33.0627 49.0942 31.264C50.296 29.4654 50.9375 27.3507 50.9375 25.1875C50.9343 22.2877 49.781 19.5075 47.7305 17.457C45.68 15.4065 42.8998 14.2532 40 14.25ZM40 34.875C38.084 34.875 36.211 34.3068 34.6179 33.2424C33.0248 32.1779 31.7831 30.6649 31.0499 28.8947C30.3167 27.1246 30.1249 25.1768 30.4986 23.2976C30.8724 21.4184 31.7951 19.6922 33.1499 18.3374C34.5047 16.9826 36.2309 16.0599 38.1101 15.6861C39.9893 15.3123 41.9371 15.5042 43.7073 16.2374C45.4774 16.9706 46.9904 18.2123 48.0549 19.8054C49.1193 21.3985 49.6875 23.2715 49.6875 25.1875C49.6853 27.7561 48.6639 30.2189 46.8477 32.0351C45.0314 33.8514 42.5686 34.8728 40 34.875Z" fill="white"/>
<g id="Group_5" opacity="0.4">
<path id="Vector_8" d="M15.4475 65.146C14.2144 63.9148 13.3457 62.3667 12.9372 60.6728C12.5288 58.9788 12.5964 57.205 13.1328 55.5471C13.6692 53.8892 14.6534 52.4118 15.9766 51.2782C17.2999 50.1445 18.9108 49.3987 20.6314 49.123L20.8279 50.3572C19.3346 50.596 17.9365 51.243 16.788 52.2267C15.6395 53.2104 14.7853 54.4925 14.3199 55.9313C13.8544 57.3701 13.7959 58.9096 14.1507 60.3796C14.5054 61.8496 15.2597 63.1929 16.3302 64.261L15.4475 65.146Z" fill="url(#paint6_linear_167_14876)"/>
</g>
<g id="Group_6" opacity="0.7">
<path id="Vector_9" d="M12.2697 68.3568C10.1767 66.2664 8.80935 63.5598 8.36865 60.6346C7.92795 57.7095 8.43712 54.7201 9.82133 52.1058C11.2055 49.4915 13.3918 47.3902 16.0588 46.1105C18.7259 44.8309 21.733 44.4404 24.6384 44.9965L24.4053 46.2246C21.7622 45.717 19.026 46.071 16.5991 47.2344C14.1722 48.3978 12.1826 50.3092 10.9229 52.6876C9.66328 55.066 9.20004 57.7858 9.60132 60.4471C10.0026 63.1083 11.2472 65.5706 13.1522 67.4718L12.2697 68.3568Z" fill="url(#paint7_linear_167_14876)"/>
</g>
<path id="Vector_10" d="M9.09245 71.5677C6.0932 68.5711 4.23429 64.6213 3.83661 60.4003C3.43893 56.1793 4.52744 51.9519 6.91424 48.4479C9.30103 44.9438 12.8363 42.383 16.9098 41.2076C20.9833 40.0321 25.3394 40.3158 29.2261 42.0095L28.728 43.1558C25.1081 41.5755 21.05 41.3092 17.2546 42.403C13.4593 43.4967 10.1652 45.8817 7.94136 49.1459C5.71755 52.4102 4.70372 56.3487 5.07503 60.281C5.44635 64.2133 7.17948 67.8924 9.97501 70.6827L9.09245 71.5677Z" fill="url(#paint8_linear_167_14876)"/>
<g id="Group_7" opacity="0.4">
<path id="Vector_11" d="M59.6064 49.1627C61.0895 49.4394 62.4846 50.0674 63.6752 50.9939C63.1632 51.1237 62.6584 51.2802 62.1627 51.4627C61.6969 51.1727 61.2 50.9358 60.6814 50.7564C60.1625 50.5614 59.6239 50.423 59.0752 50.3439L59.2627 49.1064C59.3814 49.1252 59.4939 49.1439 59.6064 49.1627Z" fill="url(#paint9_linear_167_14876)"/>
<path id="Vector_12" d="M64.3749 63.4561V63.6248H64.2437C64.2874 63.5685 64.3312 63.5122 64.3749 63.4561Z" fill="url(#paint10_linear_167_14876)"/>
</g>
<g id="Group_8" opacity="0.7">
<path id="Vector_13" d="M66.881 48.0189C66.5423 48.2699 66.2226 48.5456 65.9247 48.8439C63.3856 46.7631 60.1322 45.7601 56.8622 46.0501C56.4435 46.0876 56.0185 46.1439 55.5935 46.2251L55.356 45.0001C55.4497 44.9814 55.5435 44.9626 55.6372 44.9501C57.6217 44.6095 59.6568 44.7078 61.5993 45.2379C63.5418 45.7681 65.3446 46.7173 66.881 48.0189Z" fill="url(#paint11_linear_167_14876)"/>
</g>
<path id="Vector_14" d="M71.2754 46.2059C70.7859 46.2706 70.3029 46.3773 69.8316 46.5247C67.5835 44.3294 64.7658 42.8071 61.6974 42.13C58.629 41.4529 55.4324 41.6481 52.4691 42.6934C52.0691 42.8309 51.6691 42.9872 51.2754 43.1559L50.7754 42.0122C50.8629 41.9747 50.9566 41.9372 51.0441 41.9059C54.3715 40.4997 58.0438 40.1226 61.5875 40.8233C65.1312 41.5241 68.3837 43.2704 70.9254 45.8372C71.0441 45.9559 71.1629 46.0809 71.2754 46.2059Z" fill="url(#paint12_linear_167_14876)"/>
<path id="Vector_15" d="M18.75 22.375C17.2048 22.375 15.6944 22.8332 14.4096 23.6916C13.1249 24.5501 12.1235 25.7702 11.5322 27.1978C10.9409 28.6253 10.7862 30.1962 11.0876 31.7116C11.3891 33.2271 12.1331 34.6192 13.2257 35.7118C14.3183 36.8044 15.7104 37.5484 17.2259 37.8499C18.7413 38.1513 20.3122 37.9966 21.7397 37.4053C23.1673 36.814 24.3874 35.8127 25.2459 34.5279C26.1043 33.2431 26.5625 31.7327 26.5625 30.1875C26.5596 28.1164 25.7356 26.1309 24.2711 24.6664C22.8066 23.2019 20.8211 22.3779 18.75 22.375ZM18.75 36.75C17.4521 36.75 16.1833 36.3651 15.1041 35.644C14.0249 34.9229 13.1837 33.898 12.687 32.6989C12.1903 31.4997 12.0604 30.1802 12.3136 28.9072C12.5668 27.6342 13.1918 26.4649 14.1096 25.5471C15.0274 24.6293 16.1967 24.0043 17.4697 23.7511C18.7427 23.4979 20.0622 23.6278 21.2614 24.1245C22.4605 24.6212 23.4854 25.4624 24.2065 26.5416C24.9276 27.6208 25.3125 28.8896 25.3125 30.1875C25.3106 31.9274 24.6186 33.5955 23.3883 34.8258C22.158 36.0561 20.4899 36.7481 18.75 36.75Z" fill="url(#paint13_linear_167_14876)"/>
<path id="Vector_16" d="M60.9375 22.375C59.3923 22.375 57.8819 22.8332 56.5971 23.6916C55.3124 24.5501 54.311 25.7702 53.7197 27.1978C53.1284 28.6253 52.9737 30.1962 53.2751 31.7116C53.5766 33.2271 54.3206 34.6192 55.4132 35.7118C56.5058 36.8044 57.8979 37.5484 59.4134 37.8499C60.9288 38.1513 62.4997 37.9966 63.9272 37.4053C65.3548 36.814 66.5749 35.8127 67.4334 34.5279C68.2918 33.2431 68.75 31.7327 68.75 30.1875C68.7471 28.1164 67.9231 26.1309 66.4586 24.6664C64.9941 23.2019 63.0086 22.3779 60.9375 22.375ZM60.9375 36.75C59.6396 36.75 58.3708 36.3651 57.2916 35.644C56.2124 34.9229 55.3712 33.898 54.8745 32.6989C54.3778 31.4997 54.2479 30.1802 54.5011 28.9072C54.7543 27.6342 55.3793 26.4649 56.2971 25.5471C57.2149 24.6293 58.3842 24.0043 59.6572 23.7511C60.9302 23.4979 62.2497 23.6278 63.4489 24.1245C64.648 24.6212 65.6729 25.4624 66.394 26.5416C67.1151 27.6208 67.5 28.8896 67.5 30.1875C67.4981 31.9274 66.8061 33.5955 65.5758 34.8258C64.3455 36.0561 62.6774 36.7481 60.9375 36.75Z" fill="url(#paint14_linear_167_14876)"/>
<path id="Vector_17" d="M60.6812 50.7563C60.9062 51.1 61.1063 51.4438 61.3 51.8C60.9188 51.9688 60.5438 52.15 60.1813 52.3438C57.6849 47.8759 53.7766 44.3625 49.0691 42.3543C44.3615 40.3461 39.1207 39.9566 34.168 41.2467C29.2153 42.5369 24.8306 45.4339 21.7011 49.4837C18.5716 53.5334 16.8743 58.507 16.875 63.625H15.625V63.4563C15.6504 58.9597 16.9296 54.5594 19.3187 50.75C19.65 50.2063 20.0125 49.6813 20.3938 49.1688C21.2133 48.0493 22.1316 47.0056 23.1375 46.05C23.5313 45.6688 23.9375 45.3 24.3625 44.95C25.3546 44.1117 26.4145 43.357 27.5312 42.6938C28 42.4126 28.475 42.1501 28.9563 41.9063C32.3758 40.1603 36.1605 39.25 40 39.25C43.8395 39.25 47.6242 40.1603 51.0437 41.9063C51.525 42.15 52 42.4125 52.4688 42.6938C53.5855 43.357 54.6454 44.1117 55.6375 44.95C56.0625 45.3 56.4688 45.6688 56.8625 46.05C57.8649 47.0066 58.7829 48.048 59.6063 49.1625C59.9875 49.6813 60.35 50.2125 60.6812 50.7563Z" fill="white"/>
<path id="Vector_18" d="M64.3749 63.4561V63.6248H64.2437C64.2874 63.5685 64.3312 63.5122 64.3749 63.4561Z" fill="white"/>
<path id="Vector_19" d="M78.3625 70.9061C79.2218 68.9692 79.543 66.8364 79.2922 64.7323C79.0414 62.6282 78.228 60.6306 76.9375 58.9499C77.4552 58.2845 77.8167 57.5113 77.9951 56.6873C78.1736 55.8634 78.1644 55.0099 77.9684 54.1899C77.7724 53.37 77.3945 52.6047 76.8626 51.9505C76.3308 51.2964 75.6587 50.7702 74.896 50.411C74.1334 50.0518 73.2997 49.8686 72.4567 49.8752C71.6137 49.8817 70.7829 50.0777 70.0259 50.4488C69.2689 50.8198 68.605 51.3563 68.0834 52.0186C67.5618 52.6809 67.1958 53.452 67.0125 54.2749C64.7194 54.3705 62.5032 55.1286 60.6319 56.4574C58.7607 57.7862 57.3146 59.6289 56.4687 61.7624C56.3937 61.7561 56.325 61.7499 56.25 61.7499C54.7582 61.7499 53.3274 62.3425 52.2725 63.3974C51.2176 64.4523 50.625 65.883 50.625 67.3749C50.625 68.8667 51.2176 70.2975 52.2725 71.3523C53.3274 72.4072 54.7582 72.9999 56.25 72.9999C56.7377 72.9995 57.2232 72.9343 57.6937 72.8061C58.9734 74.7062 60.7799 76.1914 62.8916 77.0796C65.0032 77.9678 67.3282 78.2203 69.5813 77.8061C69.9954 78.4832 70.5483 79.065 71.2035 79.5131C71.8586 79.9612 72.6012 80.2655 73.3825 80.406C74.1637 80.5464 74.9658 80.5199 75.736 80.3281C76.5063 80.1363 77.2271 79.7836 77.8513 79.2932C78.4754 78.8028 78.9886 78.1858 79.3571 77.4828C79.7257 76.7798 79.9412 76.0067 79.9895 75.2144C80.0378 74.4221 79.9177 73.6286 79.6373 72.886C79.3569 72.1435 78.9224 71.4687 78.3625 70.9061ZM74.9875 69.2874C74.7843 69.2622 74.5797 69.2497 74.375 69.2499C73.0119 69.2507 71.6957 69.7469 70.6712 70.646C69.6468 71.5452 68.984 72.786 68.8062 74.1374C68.3745 74.2097 67.9377 74.2473 67.5 74.2499C66.176 74.2494 64.8721 73.9251 63.7022 73.3052C62.5322 72.6854 61.5316 71.7888 60.7875 70.6936C61.62 69.5594 61.9959 68.1537 61.8408 66.7553C61.6857 65.3569 61.0108 64.0679 59.95 63.1436C60.5463 61.6334 61.5811 60.3364 62.9212 59.4196C64.2612 58.5029 65.8451 58.0084 67.4687 57.9999C67.9329 58.9378 68.6499 59.7274 69.5389 60.2795C70.4279 60.8317 71.4535 61.1245 72.5 61.1249C72.9293 61.1231 73.357 61.0727 73.775 60.9749C74.7159 62.1181 75.3263 63.4969 75.54 64.9621C75.7537 66.4273 75.5626 67.923 74.9875 69.2874Z" fill="#4BF8BB"/>
</g>
<defs>
<linearGradient id="paint0_linear_167_14876" x1="34.375" y1="60.8125" x2="45.625" y2="60.8125" gradientUnits="userSpaceOnUse">
<stop offset="0.1105" stop-color="#78E8D8" stop-opacity="0.3"/>
<stop offset="0.2016" stop-color="#78E8D8" stop-opacity="0.4075"/>
<stop offset="0.3932" stop-color="#78E8D8" stop-opacity="0.6845"/>
<stop offset="0.5921" stop-color="#78E8D8"/>
</linearGradient>
<linearGradient id="paint1_linear_167_14876" x1="29.6875" y1="58.4685" x2="49.8438" y2="58.4685" gradientUnits="userSpaceOnUse">
<stop offset="0.1105" stop-color="#78E8D8" stop-opacity="0.275"/>
<stop offset="0.1242" stop-color="#78E8D8" stop-opacity="0.3824"/>
<stop offset="0.1526" stop-color="#78E8D8" stop-opacity="0.6571"/>
<stop offset="0.1664" stop-color="#78E8D8" stop-opacity="0.8"/>
<stop offset="0.4103" stop-color="#78E8D8" stop-opacity="0.9069"/>
<stop offset="0.5921" stop-color="#78E8D8"/>
</linearGradient>
<linearGradient id="paint2_linear_167_14876" x1="25" y1="56.1251" x2="54.0062" y2="56.1251" gradientUnits="userSpaceOnUse">
<stop offset="0.1105" stop-color="#78E8D8" stop-opacity="0.25"/>
<stop offset="0.1301" stop-color="#78E8D8" stop-opacity="0.3573"/>
<stop offset="0.1664" stop-color="#78E8D8" stop-opacity="0.6"/>
<stop offset="0.2986" stop-color="#78E8D8" stop-opacity="0.7074"/>
<stop offset="0.5752" stop-color="#78E8D8" stop-opacity="0.9822"/>
<stop offset="0.5921" stop-color="#78E8D8"/>
</linearGradient>
<linearGradient id="paint3_linear_167_14876" x1="20.3125" y1="53.7814" x2="57.3313" y2="53.7814" gradientUnits="userSpaceOnUse">
<stop offset="0.1105" stop-color="#78E8D8" stop-opacity="0.225"/>
<stop offset="0.1466" stop-color="#78E8D8" stop-opacity="0.3319"/>
<stop offset="0.1664" stop-color="#78E8D8" stop-opacity="0.4"/>
<stop offset="0.2587" stop-color="#78E8D8" stop-opacity="0.5075"/>
<stop offset="0.4514" stop-color="#78E8D8" stop-opacity="0.7821"/>
<stop offset="0.5921" stop-color="#78E8D8"/>
</linearGradient>
<linearGradient id="paint4_linear_167_14876" x1="15.625" y1="51.4375" x2="61.3001" y2="51.4375" gradientUnits="userSpaceOnUse">
<stop offset="0.1664" stop-color="#78E8D8" stop-opacity="0.2"/>
<stop offset="0.2379" stop-color="#78E8D8" stop-opacity="0.3076"/>
<stop offset="0.3884" stop-color="#78E8D8" stop-opacity="0.5847"/>
<stop offset="0.5921" stop-color="#78E8D8"/>
</linearGradient>
<linearGradient id="paint5_linear_167_14876" x1="64.2437" y1="63.5404" x2="64.3749" y2="63.5404" gradientUnits="userSpaceOnUse">
<stop offset="0.1664" stop-color="#78E8D8" stop-opacity="0.2"/>
<stop offset="0.2379" stop-color="#78E8D8" stop-opacity="0.3076"/>
<stop offset="0.3884" stop-color="#78E8D8" stop-opacity="0.5847"/>
<stop offset="0.5921" stop-color="#78E8D8"/>
</linearGradient>
<linearGradient id="paint6_linear_167_14876" x1="22.2517" y1="51.0385" x2="11.6491" y2="61.6424" gradientUnits="userSpaceOnUse">
<stop offset="0.1664" stop-color="#4BF8BB" stop-opacity="0.2"/>
<stop offset="0.2343" stop-color="#4BF8BB" stop-opacity="0.3015"/>
<stop offset="0.3773" stop-color="#4BF8BB" stop-opacity="0.563"/>
<stop offset="0.5821" stop-color="#4BF8BB" stop-opacity="0.979"/>
<stop offset="0.5921" stop-color="#4BF8BB"/>
</linearGradient>
<linearGradient id="paint7_linear_167_14876" x1="24.7885" y1="45.4418" x2="6.92507" y2="63.3071" gradientUnits="userSpaceOnUse">
<stop offset="0.1664" stop-color="#4BF8BB" stop-opacity="0.2"/>
<stop offset="0.2343" stop-color="#4BF8BB" stop-opacity="0.3015"/>
<stop offset="0.3773" stop-color="#4BF8BB" stop-opacity="0.563"/>
<stop offset="0.5821" stop-color="#4BF8BB" stop-opacity="0.979"/>
<stop offset="0.5921" stop-color="#4BF8BB"/>
</linearGradient>
<linearGradient id="paint8_linear_167_14876" x1="27.0459" y1="40.1248" x2="2.2016" y2="64.9718" gradientUnits="userSpaceOnUse">
<stop offset="0.1664" stop-color="#4BF8BB" stop-opacity="0.2"/>
<stop offset="0.2343" stop-color="#4BF8BB" stop-opacity="0.3015"/>
<stop offset="0.3773" stop-color="#4BF8BB" stop-opacity="0.563"/>
<stop offset="0.5821" stop-color="#4BF8BB" stop-opacity="0.979"/>
<stop offset="0.5921" stop-color="#4BF8BB"/>
</linearGradient>
<linearGradient id="paint9_linear_167_14876" x1="65.3245" y1="51.5967" x2="58.5504" y2="49.5989" gradientUnits="userSpaceOnUse">
<stop offset="0.4079" stop-color="#4BF8BB"/>
<stop offset="0.4179" stop-color="#4BF8BB" stop-opacity="0.979"/>
<stop offset="0.6227" stop-color="#4BF8BB" stop-opacity="0.563"/>
<stop offset="0.7657" stop-color="#4BF8BB" stop-opacity="0.3015"/>
<stop offset="0.8336" stop-color="#4BF8BB" stop-opacity="0.2"/>
</linearGradient>
<linearGradient id="paint10_linear_167_14876" x1="64.3093" y1="63.6249" x2="64.3094" y2="63.456" gradientUnits="userSpaceOnUse">
<stop offset="0.1664" stop-color="#4BF8BB" stop-opacity="0.2"/>
<stop offset="0.2343" stop-color="#4BF8BB" stop-opacity="0.3015"/>
<stop offset="0.3773" stop-color="#4BF8BB" stop-opacity="0.563"/>
<stop offset="0.5821" stop-color="#4BF8BB" stop-opacity="0.979"/>
<stop offset="0.5921" stop-color="#4BF8BB"/>
</linearGradient>
<linearGradient id="paint11_linear_167_14876" x1="67.3091" y1="46.8087" x2="54.7119" y2="46.7846" gradientUnits="userSpaceOnUse">
<stop offset="0.2378" stop-color="#4BF8BB"/>
<stop offset="0.2798" stop-color="#4BF8BB" stop-opacity="0.8918"/>
<stop offset="0.3838" stop-color="#4BF8BB" stop-opacity="0.6473"/>
<stop offset="0.4802" stop-color="#4BF8BB" stop-opacity="0.454"/>
<stop offset="0.566" stop-color="#4BF8BB" stop-opacity="0.3152"/>
<stop offset="0.638" stop-color="#4BF8BB" stop-opacity="0.2304"/>
<stop offset="0.6876" stop-color="#4BF8BB" stop-opacity="0.2"/>
</linearGradient>
<linearGradient id="paint12_linear_167_14876" x1="75.131" y1="45.1581" x2="57.0808" y2="42.3018" gradientUnits="userSpaceOnUse">
<stop offset="0.4079" stop-color="#4BF8BB"/>
<stop offset="0.4179" stop-color="#4BF8BB" stop-opacity="0.979"/>
<stop offset="0.6227" stop-color="#4BF8BB" stop-opacity="0.563"/>
<stop offset="0.7657" stop-color="#4BF8BB" stop-opacity="0.3015"/>
<stop offset="0.8336" stop-color="#4BF8BB" stop-opacity="0.2"/>
</linearGradient>
<linearGradient id="paint13_linear_167_14876" x1="26.5625" y1="30.1875" x2="10.9375" y2="30.1875" gradientUnits="userSpaceOnUse">
<stop offset="0.1664" stop-color="#4BF8BB" stop-opacity="0.2"/>
<stop offset="0.2343" stop-color="#4BF8BB" stop-opacity="0.3015"/>
<stop offset="0.3773" stop-color="#4BF8BB" stop-opacity="0.563"/>
<stop offset="0.5821" stop-color="#4BF8BB" stop-opacity="0.979"/>
<stop offset="0.5921" stop-color="#4BF8BB"/>
</linearGradient>
<linearGradient id="paint14_linear_167_14876" x1="53.125" y1="30.1875" x2="68.75" y2="30.1875" gradientUnits="userSpaceOnUse">
<stop offset="0.1664" stop-color="#4BF8BB" stop-opacity="0.2"/>
<stop offset="0.2343" stop-color="#4BF8BB" stop-opacity="0.3015"/>
<stop offset="0.3773" stop-color="#4BF8BB" stop-opacity="0.563"/>
<stop offset="0.5821" stop-color="#4BF8BB" stop-opacity="0.979"/>
<stop offset="0.5921" stop-color="#4BF8BB"/>
</linearGradient>
<clipPath id="clip0_167_14876">
<rect width="80" height="80" fill="white" transform="translate(0 0.5)"/>
</clipPath>
</defs>
</svg>
