<?xml version="1.0" encoding="UTF-8" standalone="no"?>
<!DOCTYPE svg PUBLIC "-//W3C//DTD SVG 1.1//EN" "http://www.w3.org/Graphics/SVG/1.1/DTD/svg11.dtd">
<svg width="100%" height="100%" viewBox="0 0 1661 1443" version="1.1" xmlns="http://www.w3.org/2000/svg" xmlns:xlink="http://www.w3.org/1999/xlink" xml:space="preserve" xmlns:serif="http://www.serif.com/" style="fill-rule:evenodd;clip-rule:evenodd;stroke-linejoin:round;stroke-miterlimit:2;">
    <g transform="matrix(1,0,0,1,-8967.46,-14115.2)">
        <g transform="matrix(5.66657,0,0,3.22938,42318,2199.47)">
            <g transform="matrix(3.84049,0,0,6.73888,-5899.82,3593.9)">
                <path d="M12.27,68.357C10.177,66.266 8.809,63.56 8.369,60.635C7.928,57.71 8.437,54.72 9.821,52.106C11.206,49.492 13.392,47.39 16.059,46.111C18.647,44.869 21.554,44.464 24.379,44.949C24.424,44.957 24.017,45.219 23.733,45.507C23.472,45.772 23.343,46.066 23.141,46.048C20.901,45.85 18.641,46.256 16.599,47.234C14.172,48.398 12.183,50.309 10.923,52.688C9.663,55.066 9.2,57.786 9.601,60.447C10.003,63.108 11.247,65.571 13.152,67.472L12.27,68.357Z" style="fill:none;fill-rule:nonzero;stroke:rgb(95,94,229);stroke-width:0.05px;"/>
            </g>
            <g transform="matrix(3.84049,0,0,6.73888,-5899.82,3593.9)">
                <path d="M59.606,49.163C61.09,49.439 62.485,50.067 63.675,50.994C63.163,51.124 62.658,51.28 62.163,51.463C61.697,51.173 61.2,50.936 60.681,50.756C60.432,50.663 60.378,50.195 60.117,49.878C59.827,49.525 59.548,49.153 59.606,49.163Z" style="fill:none;fill-rule:nonzero;stroke:rgb(66,133,255);stroke-width:0.05px;"/>
            </g>
            <g transform="matrix(3.84049,0,0,6.73888,-5899.82,3593.9)">
                <path d="M66.881,48.019C66.542,48.27 66.223,48.546 65.925,48.844C63.386,46.763 60.132,45.76 56.862,46.05C56.844,46.052 56.876,46.065 56.862,46.05C56.25,45.403 55.751,45.072 55.645,45C55.616,44.981 55.626,44.952 55.637,44.95C57.622,44.609 59.657,44.708 61.599,45.238C63.542,45.768 65.345,46.717 66.881,48.019Z" style="fill:none;fill-rule:nonzero;stroke:rgb(66,133,255);stroke-width:0.05px;"/>
            </g>
            <g transform="matrix(3.84049,0,0,6.73888,-5899.82,3593.9)">
                <path d="M45.625,63.625L44.375,63.625C44.375,62.465 43.914,61.352 43.094,60.531C42.273,59.711 41.16,59.25 40,59.25C38.84,59.25 37.727,59.711 36.906,60.531C36.086,61.352 35.625,62.465 35.625,63.625L34.375,63.625C34.375,62.133 34.968,60.702 36.023,59.648C37.077,58.593 38.508,58 40,58C41.492,58 42.923,58.593 43.978,59.648C45.032,60.702 45.625,62.133 45.625,63.625Z" style="fill:none;fill-rule:nonzero;stroke:rgb(125,226,193);stroke-width:0.05px;"/>
            </g>
            <g transform="matrix(3.84049,0,0,6.73888,-5899.82,3593.9)">
                <path d="M49.844,60.544C49.482,60.881 49.147,61.246 48.844,61.637C48.354,59.461 47.08,57.542 45.264,56.247C43.448,54.952 41.218,54.372 39.001,54.618C36.784,54.864 34.736,55.919 33.248,57.58C31.761,59.242 30.938,61.394 30.938,63.625L29.688,63.625C29.688,61.16 30.571,58.776 32.177,56.906C33.783,55.036 36.006,53.803 38.443,53.431C40.88,53.058 43.369,53.571 45.461,54.875C47.552,56.18 49.107,58.191 49.844,60.544Z" style="fill:none;fill-rule:nonzero;stroke:rgb(125,226,193);stroke-width:0.05px;"/>
            </g>
            <g transform="matrix(3.84049,0,0,6.73888,-5899.82,3593.9)">
                <path d="M54.006,58.269C53.599,58.369 53.201,58.498 52.813,58.656C51.654,55.665 49.486,53.173 46.683,51.612C43.881,50.051 40.621,49.52 37.468,50.109C34.315,50.699 31.467,52.373 29.418,54.842C27.37,57.31 26.249,60.417 26.25,63.625L25,63.625C24.999,60.12 26.227,56.724 28.469,54.03C30.711,51.335 33.827,49.511 37.274,48.874C40.721,48.238 44.283,48.829 47.339,50.545C50.396,52.261 52.755,54.994 54.006,58.269Z" style="fill:none;fill-rule:nonzero;stroke:rgb(125,226,193);stroke-width:0.05px;"/>
            </g>
            <g transform="matrix(3.84049,0,0,6.73888,-5899.82,3593.9)">
                <path d="M57.331,54.294C56.998,54.57 56.681,54.864 56.381,55.175C54.487,51.501 51.414,48.57 47.654,46.853C43.894,45.136 39.666,44.733 35.649,45.708C31.632,46.682 28.059,48.979 25.505,52.228C22.95,55.478 21.562,59.492 21.563,63.625L20.313,63.625C20.312,59.241 21.775,54.983 24.469,51.524C27.163,48.066 30.935,45.606 35.186,44.535C39.437,43.463 43.924,43.841 47.935,45.609C51.947,47.377 55.254,50.434 57.331,54.294Z" style="fill:none;fill-rule:nonzero;stroke:rgb(125,226,193);stroke-width:0.05px;"/>
            </g>
            <g transform="matrix(3.84049,0,0,6.73888,-5899.82,3593.9)">
                <path d="M60.681,50.756C60.906,51.1 61.106,51.444 61.3,51.8C60.919,51.969 60.544,52.15 60.181,52.344C57.685,47.876 53.777,44.362 49.069,42.354C44.362,40.346 39.121,39.957 34.168,41.247C29.215,42.537 24.831,45.434 21.701,49.484C18.572,53.533 16.874,58.507 16.875,63.625L15.625,63.625L15.625,63.456C15.65,58.96 16.93,54.559 19.319,50.75C19.65,50.206 20.013,49.681 20.394,49.169C21.213,48.049 22.132,47.006 23.138,46.05C23.531,45.669 23.938,45.3 24.363,44.95C25.355,44.112 26.415,43.357 27.531,42.694C28,42.413 28.475,42.15 28.956,41.906C32.376,40.16 36.161,39.25 40,39.25C43.84,39.25 47.624,40.16 51.044,41.906C51.525,42.15 52,42.413 52.469,42.694C53.586,43.357 54.645,44.112 55.638,44.95C56.063,45.3 56.469,45.669 56.862,46.05C57.865,47.007 58.783,48.048 59.606,49.163C59.987,49.681 60.35,50.213 60.681,50.756Z" style="fill:none;fill-rule:nonzero;"/>
            </g>
            <g transform="matrix(3.84049,0,0,6.73888,-5899.82,3593.9)">
                <path d="M40,14.25C37.837,14.25 35.722,14.892 33.924,16.093C32.125,17.295 30.723,19.003 29.895,21.002C29.067,23.001 28.851,25.2 29.273,27.321C29.695,29.443 30.736,31.392 32.266,32.922C33.796,34.451 35.745,35.493 37.866,35.915C39.988,36.337 42.187,36.12 44.186,35.292C46.184,34.465 47.892,33.063 49.094,31.264C50.296,29.465 50.938,27.351 50.938,25.188C50.934,22.288 49.781,19.508 47.731,17.457C45.68,15.407 42.9,14.253 40,14.25ZM40,34.875C38.084,34.875 36.211,34.307 34.618,33.242C33.025,32.178 31.783,30.665 31.05,28.895C30.317,27.125 30.125,25.177 30.499,23.298C30.872,21.418 31.795,19.692 33.15,18.337C34.505,16.983 36.231,16.06 38.11,15.686C39.989,15.312 41.937,15.504 43.707,16.237C45.477,16.971 46.99,18.212 48.055,19.805C49.119,21.398 49.688,23.272 49.688,25.188C49.685,27.756 48.664,30.219 46.848,32.035C45.031,33.851 42.569,34.873 40,34.875Z" style="fill:none;fill-rule:nonzero;stroke:white;stroke-width:0.05px;"/>
            </g>
            <g transform="matrix(3.84049,0,0,6.73888,-5899.82,3593.9)">
                <path d="M15.448,65.146C14.214,63.915 13.346,62.367 12.937,60.673C12.529,58.979 12.596,57.205 13.133,55.547C13.669,53.889 14.653,52.412 15.977,51.278C17.241,50.195 18.768,49.466 20.403,49.163C20.444,49.155 20.084,49.565 19.836,49.972C19.728,50.15 19.562,50.327 19.486,50.469C19.413,50.605 19.429,50.708 19.32,50.748C18.398,51.084 17.539,51.583 16.788,52.227C15.64,53.21 14.785,54.493 14.32,55.931C13.854,57.37 13.796,58.91 14.151,60.38C14.505,61.85 15.26,63.193 16.33,64.261L15.448,65.146Z" style="fill:none;fill-rule:nonzero;stroke:rgb(95,94,229);stroke-width:0.05px;"/>
            </g>
            <g transform="matrix(0.176473,0,0,0.309657,-7468,-681.082)">
                <path d="M9485.53,14734.6C9413.59,14709.4 9335.38,14707.1 9261.72,14728.3C9179.12,14752.1 9107.44,14804 9059.04,14875.1C9010.65,14946.1 8988.58,15031.8 8996.66,15117.4C9004.74,15203 9042.46,15283 9103.3,15343.8L9084.09,15363C9018.82,15297.8 8978.36,15211.9 8969.71,15120C8961.06,15028.1 8984.75,14936.1 9036.69,14859.9C9088.63,14783.6 9165.57,14727.9 9254.22,14702.3C9340.92,14677.3 9433.5,14682.7 9516.65,14717.4C9591,14679.5 9673.26,14659.7 9756.71,14659.7C9840.27,14659.7 9922.63,14679.5 9997.04,14717.5C9997.05,14717.5 9997.05,14717.5 9997.06,14717.5C10069.5,14686.9 10149.4,14678.7 10226.5,14694C10303.6,14709.2 10374.4,14747.2 10429.7,14803.1C10432.3,14805.7 10434.9,14808.4 10437.3,14811.1C10426.7,14812.5 10416.2,14814.8 10405.9,14818C10357,14770.3 10295.7,14737.1 10228.9,14722.4C10162.1,14707.7 10092.6,14711.9 10028.1,14734.7C10028.1,14734.7 10028.1,14734.7 10028.1,14734.7C10028.1,14734.7 10028.1,14734.7 10028.1,14734.7C10052.4,14749.1 10075.4,14765.5 10097,14783.8C10106.3,14791.4 10115.1,14799.4 10123.7,14807.7C10145.5,14828.5 10165.5,14851.2 10183.4,14875.4C10191.7,14886.7 10199.6,14898.3 10206.8,14910.1C10211.7,14917.6 10216,14925.1 10220.3,14932.8C10212,14936.5 10203.8,14940.5 10195.9,14944.7C10141.6,14847.4 10056.5,14771 9954.08,14727.3C9851.63,14683.6 9737.58,14675.1 9629.8,14703.2C9522.01,14731.3 9426.59,14794.3 9358.49,14882.4C9290.38,14970.6 9253.44,15078.8 9253.46,15190.2L9226.26,15190.2L9226.26,15186.5C9226.81,15088.7 9254.65,14992.9 9306.64,14910C9313.85,14898.2 9321.74,14886.7 9330.03,14875.6C9347.87,14851.2 9367.85,14828.5 9389.75,14807.7C9398.32,14799.4 9407.16,14791.4 9416.4,14783.8C9437.99,14765.5 9461.06,14749.1 9485.36,14734.7C9485.42,14734.6 9485.47,14734.6 9485.53,14734.6Z" style="fill:none;stroke:rgb(254,255,255);stroke-width:1px;"/>
            </g>
            <g transform="matrix(3.84049,0,0,6.73888,-5899.82,3593.9)">
                <path d="M18.75,22.375C17.205,22.375 15.694,22.833 14.41,23.692C13.125,24.55 12.124,25.77 11.532,27.198C10.941,28.625 10.786,30.196 11.088,31.712C11.389,33.227 12.133,34.619 13.226,35.712C14.318,36.804 15.71,37.548 17.226,37.85C18.741,38.151 20.312,37.997 21.74,37.405C23.167,36.814 24.387,35.813 25.246,34.528C26.104,33.243 26.563,31.733 26.563,30.188C26.56,28.116 25.736,26.131 24.271,24.666C22.807,23.202 20.821,22.378 18.75,22.375ZM18.75,36.75C17.452,36.75 16.183,36.365 15.104,35.644C14.025,34.923 13.184,33.898 12.687,32.699C12.19,31.5 12.06,30.18 12.314,28.907C12.567,27.634 13.192,26.465 14.11,25.547C15.027,24.629 16.197,24.004 17.47,23.751C18.743,23.498 20.062,23.628 21.261,24.125C22.461,24.621 23.485,25.462 24.206,26.542C24.928,27.621 25.313,28.89 25.313,30.188C25.311,31.927 24.619,33.596 23.388,34.826C22.158,36.056 20.49,36.748 18.75,36.75Z" style="fill:none;fill-rule:nonzero;stroke:white;stroke-width:0.05px;"/>
            </g>
            <g transform="matrix(3.84049,0,0,6.73888,-5899.82,3593.9)">
                <path d="M60.938,22.375C59.392,22.375 57.882,22.833 56.597,23.692C55.312,24.55 54.311,25.77 53.72,27.198C53.128,28.625 52.974,30.196 53.275,31.712C53.577,33.227 54.321,34.619 55.413,35.712C56.506,36.804 57.898,37.548 59.413,37.85C60.929,38.151 62.5,37.997 63.927,37.405C65.355,36.814 66.575,35.813 67.433,34.528C68.292,33.243 68.75,31.733 68.75,30.188C68.747,28.116 67.923,26.131 66.459,24.666C64.994,23.202 63.009,22.378 60.938,22.375ZM60.938,36.75C59.64,36.75 58.371,36.365 57.292,35.644C56.212,34.923 55.371,33.898 54.875,32.699C54.378,31.5 54.248,30.18 54.501,28.907C54.754,27.634 55.379,26.465 56.297,25.547C57.215,24.629 58.384,24.004 59.657,23.751C60.93,23.498 62.25,23.628 63.449,24.125C64.648,24.621 65.673,25.462 66.394,26.542C67.115,27.621 67.5,28.89 67.5,30.188C67.498,31.927 66.806,33.596 65.576,34.826C64.346,36.056 62.677,36.748 60.938,36.75Z" style="fill:none;fill-rule:nonzero;stroke:white;stroke-width:0.05px;"/>
            </g>
            <g transform="matrix(3.84049,0,0,6.73888,-5899.82,3593.9)">
                <path d="M78.363,70.906C79.222,68.969 79.543,66.836 79.292,64.732C79.041,62.628 78.228,60.631 76.938,58.95C77.455,58.285 77.817,57.511 77.995,56.687C78.174,55.863 78.164,55.01 77.968,54.19C77.772,53.37 77.394,52.605 76.863,51.951C76.331,51.296 75.659,50.77 74.896,50.411C74.133,50.052 73.3,49.869 72.457,49.875C71.614,49.882 70.783,50.078 70.026,50.449C69.269,50.82 68.605,51.356 68.083,52.019C67.562,52.681 67.196,53.452 67.013,54.275C64.719,54.371 62.503,55.129 60.632,56.457C58.761,57.786 57.315,59.629 56.469,61.762C56.394,61.756 56.325,61.75 56.25,61.75C54.758,61.75 53.327,62.343 52.273,63.397C51.218,64.452 50.625,65.883 50.625,67.375C50.625,68.867 51.218,70.298 52.273,71.352C53.327,72.407 54.758,73 56.25,73C56.738,73 57.223,72.934 57.694,72.806C58.973,74.706 60.78,76.191 62.892,77.08C65.003,77.968 67.328,78.22 69.581,77.806C69.995,78.483 70.548,79.065 71.204,79.513C71.859,79.961 72.601,80.266 73.382,80.406C74.164,80.546 74.966,80.52 75.736,80.328C76.506,80.136 77.227,79.784 77.851,79.293C78.475,78.803 78.989,78.186 79.357,77.483C79.726,76.78 79.941,76.007 79.99,75.214C80.038,74.422 79.918,73.629 79.637,72.886C79.357,72.144 78.922,71.469 78.363,70.906ZM74.988,69.287C74.784,69.262 74.58,69.25 74.375,69.25C73.012,69.251 71.696,69.747 70.671,70.646C69.647,71.545 68.984,72.786 68.806,74.137C68.375,74.21 67.938,74.247 67.5,74.25C66.176,74.249 64.872,73.925 63.702,73.305C62.532,72.685 61.532,71.789 60.788,70.694C61.62,69.559 61.996,68.154 61.841,66.755C61.686,65.357 61.011,64.068 59.95,63.144C60.546,61.633 61.581,60.336 62.921,59.42C64.261,58.503 65.845,58.008 67.469,58C67.933,58.938 68.65,59.727 69.539,60.28C70.428,60.832 71.454,61.124 72.5,61.125C72.929,61.123 73.357,61.073 73.775,60.975C74.716,62.118 75.326,63.497 75.54,64.962C75.754,66.427 75.563,67.923 74.988,69.287Z" style="fill:none;fill-rule:nonzero;stroke:rgb(125,226,193);stroke-width:0.05px;"/>
            </g>
        </g>
    </g>
</svg>
