<svg width="128" height="129" viewBox="0 0 128 129" fill="none" xmlns="http://www.w3.org/2000/svg">
<mask id="mask0_167_14459" style="mask-type:luminance" maskUnits="userSpaceOnUse" x="32" y="28" width="63" height="73">
<path d="M63.5 28.25L32.875 46.375V82.625L63.5 100.75L94.125 82.625V46.375L63.5 28.25ZM43.875 67.625C42.75 68.25 41 67.25 39.875 65.4375C38.75 63.625 38.8125 61.6875 39.875 61.0625C41 60.4375 42.75 61.4375 43.875 63.25C45 65.0625 45 67 43.875 67.625ZM54.875 86.5625C53.75 87.1875 52 86.1875 50.875 84.375C49.75 82.5625 49.8125 80.625 50.875 80C52 79.375 53.75 80.375 54.875 82.1875C56 84 56 86 54.875 86.5625ZM63.5 48.5625C61.4375 48.5625 59.75 47.5625 59.75 46.375C59.75 45.1875 61.4375 44.1875 63.5 44.1875C65.5625 44.1875 67.25 45.1875 67.25 46.375C67.25 47.5625 65.5625 48.5625 63.5 48.5625ZM75.5 84.9375C74.375 86.75 72.625 87.6875 71.5 87.125C70.375 86.5 70.375 84.5625 71.5 82.75C72.625 80.9375 74.375 80 75.5 80.5625C76.625 81.25 76.625 83.1875 75.5 84.9375ZM82.375 73.0625C81.25 74.875 79.5 75.8125 78.375 75.25C77.25 74.625 77.25 72.6875 78.375 70.875C79.5 69.0625 81.25 68.125 82.375 68.6875C83.5 69.375 83.5 71.3125 82.375 73.0625ZM88.625 62.4375C87.5 64.25 85.75 65.1875 84.625 64.625C83.5 64 83.5 62.0625 84.625 60.25C85.75 58.4375 87.5 57.5 88.625 58.0625C89.75 58.75 89.75 60.6875 88.625 62.4375Z" fill="white"/>
</mask>
<g mask="url(#mask0_167_14459)">
<mask id="mask1_167_14459" style="mask-type:luminance" maskUnits="userSpaceOnUse" x="32" y="28" width="63" height="73">
<path d="M32.875 46.375V82.625L63.5 100.75L94.125 82.625V46.375L63.5 28.25L32.875 46.375Z" fill="white"/>
</mask>
<g mask="url(#mask1_167_14459)">
<path d="M63.5 103.25V65.75L97.875 43.875" stroke="url(#paint0_linear_167_14459)" stroke-width="1.25" stroke-miterlimit="10"/>
<path d="M68.75 101.875V68.5L99 49.25" stroke="url(#paint1_linear_167_14459)" stroke-width="1.25" stroke-miterlimit="10"/>
<path d="M74 100.5V71.1875L100.125 54.625" stroke="url(#paint2_linear_167_14459)" stroke-width="1.25" stroke-miterlimit="10"/>
<path d="M79.25 99.125V73.9375L101.25 60" stroke="url(#paint3_linear_167_14459)" stroke-width="1.25" stroke-miterlimit="10"/>
<path d="M84.5 97.75V76.6875L102.375 65.375" stroke="url(#paint4_linear_167_14459)" stroke-width="1.25" stroke-miterlimit="10"/>
<path d="M89.75 96.375V79.375L103.5 70.75" stroke="url(#paint5_linear_167_14459)" stroke-width="1.25" stroke-miterlimit="10"/>
<path d="M63.5 103.875V65.75L31.625 45.75" stroke="url(#paint6_linear_167_14459)" stroke-width="1.25" stroke-miterlimit="10"/>
<path d="M58.25 102.375V68.5L30 50.75" stroke="url(#paint7_linear_167_14459)" stroke-width="1.25" stroke-miterlimit="10"/>
<path d="M53 100.875V71.1875L28.375 55.75" stroke="url(#paint8_linear_167_14459)" stroke-width="1.25" stroke-miterlimit="10"/>
<path d="M47.75 99.375V73.9375L26.75 60.75" stroke="url(#paint9_linear_167_14459)" stroke-width="1.25" stroke-miterlimit="10"/>
<path d="M42.5 97.875V76.6875L25.125 65.75" stroke="url(#paint10_linear_167_14459)" stroke-width="1.25" stroke-miterlimit="10"/>
<path d="M37.25 96.375V79.375L23.5 70.75" stroke="url(#paint11_linear_167_14459)" stroke-width="1.25" stroke-miterlimit="10"/>
<path d="M32.25 46.1875L63.5 65.75L96 45.125" stroke="url(#paint12_linear_167_14459)" stroke-width="1.25" stroke-miterlimit="10"/>
<path d="M36.875 43.0625L63.5 59.6875L91 42.25" stroke="url(#paint13_linear_167_14459)" stroke-width="1.25" stroke-miterlimit="10"/>
<path d="M41.5 40L63.5 53.6875L86 39.375" stroke="url(#paint14_linear_167_14459)" stroke-width="1.25" stroke-miterlimit="10"/>
<path d="M46.125 36.9375L63.5 47.625L81 36.5" stroke="url(#paint15_linear_167_14459)" stroke-width="1.25" stroke-miterlimit="10"/>
<path d="M50.75 33.8125L63.5 41.625L76 33.625" stroke="url(#paint16_linear_167_14459)" stroke-width="1.25" stroke-miterlimit="10"/>
<path d="M55.375 30.75L63.5 35.625L71 30.75" stroke="url(#paint17_linear_167_14459)" stroke-width="1.25" stroke-miterlimit="10"/>
</g>
<path d="M63.5 100.75V65.75L32.875 46.375" stroke="white" stroke-width="1.25" stroke-miterlimit="10"/>
<path d="M63.5 65.75L94.125 46.375" stroke="white" stroke-width="1.25" stroke-miterlimit="10"/>
</g>
<path d="M63.5 48.5625C65.5625 48.5625 67.25 47.5625 67.25 46.375C67.25 45.1875 65.5625 44.1875 63.5 44.1875C61.4375 44.1875 59.75 45.1875 59.75 46.375C59.75 47.5625 61.4375 48.5625 63.5 48.5625Z" stroke="white" stroke-width="1.25" stroke-miterlimit="10"/>
<path d="M54.7502 82.25C53.6877 80.4375 52.0002 79.5 51.0002 80.125C50.0002 80.75 49.9377 82.6875 51.0002 84.4375C52.0627 86.25 53.7502 87.1875 54.7502 86.5625C55.7502 85.9375 55.7502 84 54.7502 82.25Z" stroke="white" stroke-width="1.25" stroke-miterlimit="10"/>
<path d="M43.8125 63.25C42.75 61.4375 41.0625 60.5 40.0625 61.125C39 61.75 39 63.6875 40.0625 65.4375C41.125 67.25 42.8125 68.1875 43.8125 67.5625C44.8125 67 44.8125 65.0625 43.8125 63.25Z" stroke="white" stroke-width="1.25" stroke-miterlimit="10"/>
<path d="M75.5002 84.9375C76.6252 83.125 76.5627 81.1875 75.5002 80.5625C74.4377 79.9375 72.6252 80.9375 71.5002 82.75C70.3752 84.5625 70.4377 86.5 71.5002 87.125C72.6252 87.75 74.4377 86.75 75.5002 84.9375Z" stroke="white" stroke-width="1.25" stroke-miterlimit="10"/>
<path d="M82.3752 73.0625C83.5002 71.25 83.4377 69.3125 82.3752 68.6875C81.3127 68.0625 79.5002 69.0625 78.3752 70.875C77.2502 72.6875 77.3127 74.625 78.3752 75.25C79.5002 75.875 81.3127 74.875 82.3752 73.0625Z" stroke="white" stroke-width="1.25" stroke-miterlimit="10"/>
<path d="M88.6252 62.4375C89.7502 60.625 89.6877 58.6875 88.6252 58.0625C87.5002 57.4375 85.7502 58.4375 84.6252 60.25C83.5002 62.0625 83.5627 64 84.6252 64.625C85.7502 65.25 87.5627 64.25 88.6252 62.4375Z" stroke="white" stroke-width="1.25" stroke-miterlimit="10"/>
<defs>
<linearGradient id="paint0_linear_167_14459" x1="98.2307" y1="73.2989" x2="62.8952" y2="73.2989" gradientUnits="userSpaceOnUse">
<stop offset="0.429" stop-color="#78E8D8" stop-opacity="0.2"/>
<stop offset="1" stop-color="#78E8D8"/>
</linearGradient>
<linearGradient id="paint1_linear_167_14459" x1="99.3555" y1="75.2988" x2="68.1453" y2="75.2988" gradientUnits="userSpaceOnUse">
<stop offset="0.429" stop-color="#78E8D8" stop-opacity="0.2"/>
<stop offset="1" stop-color="#78E8D8"/>
</linearGradient>
<linearGradient id="paint2_linear_167_14459" x1="100.48" y1="77.2987" x2="73.3952" y2="77.2987" gradientUnits="userSpaceOnUse">
<stop offset="0.429" stop-color="#78E8D8" stop-opacity="0.2"/>
<stop offset="1" stop-color="#78E8D8"/>
</linearGradient>
<linearGradient id="paint3_linear_167_14459" x1="101.605" y1="79.2985" x2="78.6452" y2="79.2985" gradientUnits="userSpaceOnUse">
<stop offset="0.429" stop-color="#78E8D8" stop-opacity="0.2"/>
<stop offset="1" stop-color="#78E8D8"/>
</linearGradient>
<linearGradient id="paint4_linear_167_14459" x1="102.729" y1="81.2983" x2="83.8952" y2="81.2983" gradientUnits="userSpaceOnUse">
<stop offset="0.429" stop-color="#78E8D8" stop-opacity="0.2"/>
<stop offset="1" stop-color="#78E8D8"/>
</linearGradient>
<linearGradient id="paint5_linear_167_14459" x1="103.853" y1="83.2979" x2="89.1452" y2="83.2979" gradientUnits="userSpaceOnUse">
<stop offset="0.429" stop-color="#78E8D8" stop-opacity="0.2"/>
<stop offset="1" stop-color="#78E8D8"/>
</linearGradient>
<linearGradient id="paint6_linear_167_14459" x1="31.3131" y1="74.5478" x2="64.1452" y2="74.5478" gradientUnits="userSpaceOnUse">
<stop offset="0.1217" stop-color="#4BF8BB" stop-opacity="0.2"/>
<stop offset="1" stop-color="#4BF8BB"/>
</linearGradient>
<linearGradient id="paint7_linear_167_14459" x1="29.688" y1="76.2978" x2="58.8952" y2="76.2978" gradientUnits="userSpaceOnUse">
<stop offset="0.1217" stop-color="#4BF8BB" stop-opacity="0.2"/>
<stop offset="0.4178" stop-color="#4BF8BB" stop-opacity="0.84"/>
<stop offset="1" stop-color="#4BF8BB"/>
</linearGradient>
<linearGradient id="paint8_linear_167_14459" x1="28.0629" y1="78.0478" x2="53.6452" y2="78.0478" gradientUnits="userSpaceOnUse">
<stop offset="0.1217" stop-color="#4BF8BB" stop-opacity="0.2"/>
<stop offset="0.4178" stop-color="#4BF8BB" stop-opacity="0.68"/>
<stop offset="1" stop-color="#4BF8BB"/>
</linearGradient>
<linearGradient id="paint9_linear_167_14459" x1="26.4378" y1="79.7979" x2="48.3952" y2="79.7979" gradientUnits="userSpaceOnUse">
<stop offset="0.1217" stop-color="#4BF8BB" stop-opacity="0.2"/>
<stop offset="0.4178" stop-color="#4BF8BB" stop-opacity="0.52"/>
<stop offset="1" stop-color="#4BF8BB"/>
</linearGradient>
<linearGradient id="paint10_linear_167_14459" x1="24.8127" y1="81.5479" x2="43.1452" y2="81.5479" gradientUnits="userSpaceOnUse">
<stop offset="0.1217" stop-color="#4BF8BB" stop-opacity="0.2"/>
<stop offset="0.4178" stop-color="#4BF8BB" stop-opacity="0.36"/>
<stop offset="1" stop-color="#4BF8BB"/>
</linearGradient>
<linearGradient id="paint11_linear_167_14459" x1="23.1875" y1="83.2979" x2="37.8952" y2="83.2979" gradientUnits="userSpaceOnUse">
<stop offset="0.4178" stop-color="#4BF8BB" stop-opacity="0.2"/>
<stop offset="0.9628" stop-color="#4BF8BB" stop-opacity="0.9489"/>
<stop offset="1" stop-color="#4BF8BB"/>
</linearGradient>
<linearGradient id="paint12_linear_167_14459" x1="74.6924" y1="30.4677" x2="53.8473" y2="61.4382" gradientUnits="userSpaceOnUse">
<stop offset="0.1664" stop-color="#4BF8BB" stop-opacity="0.2"/>
<stop offset="1" stop-color="#4BF8BB"/>
</linearGradient>
<linearGradient id="paint13_linear_167_14459" x1="72.956" y1="29.7896" x2="55.208" y2="56.1586" gradientUnits="userSpaceOnUse">
<stop offset="0.1664" stop-color="#4BF8BB" stop-opacity="0.2"/>
<stop offset="0.4346" stop-color="#4BF8BB" stop-opacity="0.84"/>
<stop offset="1" stop-color="#4BF8BB"/>
</linearGradient>
<linearGradient id="paint14_linear_167_14459" x1="71.2194" y1="29.1116" x2="56.5686" y2="50.8789" gradientUnits="userSpaceOnUse">
<stop offset="0.1664" stop-color="#4BF8BB" stop-opacity="0.2"/>
<stop offset="0.4346" stop-color="#4BF8BB" stop-opacity="0.68"/>
<stop offset="1" stop-color="#4BF8BB"/>
</linearGradient>
<linearGradient id="paint15_linear_167_14459" x1="69.4824" y1="28.4334" x2="57.9289" y2="45.599" gradientUnits="userSpaceOnUse">
<stop offset="0.1664" stop-color="#4BF8BB" stop-opacity="0.2"/>
<stop offset="0.4346" stop-color="#4BF8BB" stop-opacity="0.52"/>
<stop offset="1" stop-color="#4BF8BB"/>
</linearGradient>
<linearGradient id="paint16_linear_167_14459" x1="67.7447" y1="27.7554" x2="59.2889" y2="40.3188" gradientUnits="userSpaceOnUse">
<stop offset="0.1664" stop-color="#4BF8BB" stop-opacity="0.2"/>
<stop offset="0.4346" stop-color="#4BF8BB" stop-opacity="0.36"/>
<stop offset="1" stop-color="#4BF8BB"/>
</linearGradient>
<linearGradient id="paint17_linear_167_14459" x1="66.005" y1="27.0776" x2="60.6476" y2="35.0374" gradientUnits="userSpaceOnUse">
<stop offset="0.4346" stop-color="#4BF8BB" stop-opacity="0.2"/>
<stop offset="1" stop-color="#4BF8BB"/>
</linearGradient>
</defs>
</svg>
