<svg width="80" height="81" viewBox="0 0 80 81" fill="none" xmlns="http://www.w3.org/2000/svg">
<g clip-path="url(#clip0_167_14436)">
<path d="M1.875 65.5C2.25 62.375 4.43125 48 4.88125 44.875C5.41875 41.1938 5.8125 37.4813 6.5375 33.8438C7.57412 28.95 10.1457 24.5149 13.8778 21.1841C17.61 17.8533 22.3078 15.8006 27.2875 15.325C28.1 15.25 28.9188 15.2188 29.7313 15.2125C33.1938 15.2125 36.6625 15.2125 40.125 15.2125" stroke="url(#paint0_linear_167_14436)" stroke-width="1.25" stroke-miterlimit="10"/>
<path d="M5.9751 65.5C6.30635 62.7438 8.28135 49.7813 8.68135 47.0375C9.14385 43.8125 9.5251 40.3563 10.1688 37.1688C11.171 32.2675 13.8851 27.8829 17.8251 24.8C20.9647 22.4261 24.7101 20.9856 28.6313 20.6438C29.3563 20.5813 30.0876 20.55 30.8126 20.55C33.9376 20.55 37.0626 20.55 40.1126 20.55" stroke="url(#paint1_linear_167_14436)" stroke-width="1.25" stroke-miterlimit="10"/>
<path d="M10.0752 65.5001C10.3564 63.1376 12.1314 51.5689 12.4752 49.2501C12.8752 46.4876 13.2439 43.2814 13.7939 40.5501C14.6699 36.2388 17.0107 32.3633 20.4189 29.5814C23.2106 27.5052 26.5318 26.2595 30.0002 25.9876C30.6252 25.9314 31.2877 25.9001 31.9252 25.9001C34.6939 25.9001 37.4502 25.9001 40.1252 25.9001" stroke="url(#paint2_linear_167_14436)" stroke-width="1.25" stroke-miterlimit="10"/>
<path d="M14.1812 65.5001C14.4124 63.5314 15.9874 53.3626 16.2687 51.3939C16.6062 49.0939 16.9624 46.1376 17.4187 43.8626C18.1187 40.3751 20.2812 36.3939 23.0437 34.3001C25.4688 32.5573 28.3328 31.5269 31.3124 31.3251C31.8624 31.2814 32.4249 31.2564 32.9812 31.2501H40.0811" stroke="url(#paint3_linear_167_14436)" stroke-width="1.25" stroke-miterlimit="10"/>
<path d="M18.2812 65.5C18.4688 63.925 19.8375 55.15 20.0625 53.575C20.3312 51.7375 20.6875 49.0312 21.0437 47.2125C21.6 44.4187 23.4188 40.725 25.6063 39.0875C27.6862 37.6507 30.1253 36.8218 32.65 36.6937C33.1188 36.6562 33.5938 36.6375 34.0625 36.6375C36.1312 36.6375 38.175 36.6375 40.0625 36.6375" stroke="url(#paint4_linear_167_14436)" stroke-width="1.25" stroke-miterlimit="10"/>
<path d="M22.3813 65.5C22.5251 64.3188 23.6876 56.9375 23.8626 55.7563C24.0626 54.3813 24.3938 51.925 24.6688 50.5563C25.0876 48.4625 26.5438 45.0563 28.2001 43.8063C29.4876 42.8188 31.6813 42.175 33.9938 42.0063C34.3751 42.0063 34.7626 41.9625 35.1438 41.9563H40.0501" stroke="url(#paint5_linear_167_14436)" stroke-width="1.25" stroke-miterlimit="10"/>
<path d="M26.4873 65.5001C26.5748 64.7126 27.5436 58.7251 27.6561 57.9376C27.7873 57.0189 28.1123 54.8126 28.2811 53.9064C28.5623 52.5064 29.6936 49.3939 30.7811 48.5564C31.6436 47.9314 33.4373 47.4626 35.3186 47.3439C35.6186 47.3439 35.9436 47.3439 36.2123 47.3439C37.5873 47.3439 38.9248 47.3439 40.0186 47.3439" stroke="url(#paint6_linear_167_14436)" stroke-width="1.25" stroke-miterlimit="10"/>
<path d="M22.5 25.1875V44.5625" stroke="white" stroke-width="1.25" stroke-miterlimit="10"/>
<path d="M12.8125 34.875H32.1875" stroke="white" stroke-width="1.25" stroke-miterlimit="10"/>
<path d="M48.75 36.125C50.4759 36.125 51.875 34.7259 51.875 33C51.875 31.2741 50.4759 29.875 48.75 29.875C47.0241 29.875 45.625 31.2741 45.625 33C45.625 34.7259 47.0241 36.125 48.75 36.125Z" stroke="white" stroke-width="1.25" stroke-miterlimit="10"/>
<path d="M62.5 36.125C64.2259 36.125 65.625 34.7259 65.625 33C65.625 31.2741 64.2259 29.875 62.5 29.875C60.7741 29.875 59.375 31.2741 59.375 33C59.375 34.7259 60.7741 36.125 62.5 36.125Z" stroke="white" stroke-width="1.25" stroke-miterlimit="10"/>
<path d="M55.625 43C57.3509 43 58.75 41.6009 58.75 39.875C58.75 38.1491 57.3509 36.75 55.625 36.75C53.8991 36.75 52.5 38.1491 52.5 39.875C52.5 41.6009 53.8991 43 55.625 43Z" stroke="white" stroke-width="1.25" stroke-miterlimit="10"/>
<path d="M55.625 29.25C57.3509 29.25 58.75 27.8509 58.75 26.125C58.75 24.3991 57.3509 23 55.625 23C53.8991 23 52.5 24.3991 52.5 26.125C52.5 27.8509 53.8991 29.25 55.625 29.25Z" stroke="white" stroke-width="1.25" stroke-miterlimit="10"/>
<path d="M1.875 65.5C2.25 62.375 4.43125 48 4.88125 44.875C5.41875 41.1938 5.8125 37.4813 6.5375 33.8438C7.57412 28.95 10.1457 24.5149 13.8778 21.1841C17.61 17.8533 22.3078 15.8006 27.2875 15.325C28.1 15.25 28.9188 15.2188 29.7313 15.2125C33.1938 15.2125 36.6625 15.2125 40.125 15.2125" stroke="url(#paint7_linear_167_14436)" stroke-width="1.25" stroke-miterlimit="10"/>
<path d="M39.875 15.1875C43.3375 15.1875 46.8063 15.1875 50.2688 15.1875C51.0813 15.1875 51.9 15.225 52.7125 15.3C57.6922 15.7756 62.39 17.8282 66.1222 21.1591C69.8543 24.4899 72.4259 28.925 73.4625 33.8188C74.1875 37.4563 74.5813 41.1687 75.1188 44.85C75.5688 47.975 77.75 62.35 78.125 65.475" stroke="url(#paint8_linear_167_14436)" stroke-width="1.25" stroke-miterlimit="10"/>
<path d="M39.8872 20.5437C42.9622 20.5437 46.0685 20.5437 49.1872 20.5437C49.9122 20.5437 50.6435 20.575 51.3685 20.6375C55.8281 20.998 60.0471 22.8086 63.381 25.7926C66.7148 28.7766 68.9802 32.7699 69.831 37.1625C70.456 40.35 70.856 43.8062 71.3185 47.0312C71.7185 49.7749 73.6935 62.7375 74.0247 65.4937" stroke="url(#paint9_linear_167_14436)" stroke-width="1.25" stroke-miterlimit="10"/>
<path d="M39.9062 25.8937C42.5813 25.8937 45.3375 25.8937 48.1063 25.8937C48.7313 25.8937 49.3563 25.8937 50.0313 25.9812C53.4857 26.2497 56.795 27.4842 59.5813 29.5437C62.9871 32.3224 65.3276 36.1931 66.2063 40.4999C66.7563 43.2312 67.125 46.4374 67.525 49.1999C67.8688 51.5499 69.6438 63.1187 69.9188 65.4812" stroke="url(#paint10_linear_167_14436)" stroke-width="1.25" stroke-miterlimit="10"/>
<path d="M39.9189 31.2437H47.0189C47.5752 31.2437 48.1377 31.2437 48.6877 31.3187C51.6781 31.5147 54.5536 32.5454 56.9877 34.2937C59.7189 36.3874 61.8814 40.3687 62.5814 43.8562C63.0377 46.1312 63.3939 49.0874 63.7314 51.3874C64.0127 53.3562 65.6064 63.5249 65.8189 65.4937" stroke="url(#paint11_linear_167_14436)" stroke-width="1.25" stroke-miterlimit="10"/>
<path d="M39.9375 36.5938C41.8125 36.5938 43.8687 36.5938 45.9375 36.5938C46.4062 36.5938 46.8813 36.5938 47.35 36.65C49.8695 36.7852 52.3017 37.6183 54.375 39.0562C56.5625 40.725 58.3813 44.4188 58.9375 47.1813C59.3063 49 59.65 51.7063 59.9188 53.5438C60.1438 55.1188 61.5125 63.8937 61.7 65.4687" stroke="url(#paint12_linear_167_14436)" stroke-width="1.25" stroke-miterlimit="10"/>
<path d="M39.9502 41.9438H44.8564C45.2377 41.9438 45.6252 41.9438 46.0064 41.9938C48.3189 42.1626 50.5127 42.8063 51.8002 43.7938C53.4377 45.0438 54.9252 48.4501 55.3314 50.5438C55.6064 51.9126 55.9564 54.3688 56.1377 55.7438C56.3127 56.9376 57.5002 64.3188 57.6189 65.5001" stroke="url(#paint13_linear_167_14436)" stroke-width="1.25" stroke-miterlimit="10"/>
<path d="M40 47.2999C41.0938 47.2999 42.4312 47.2999 43.8062 47.2999C44.1 47.2999 44.4 47.2999 44.7 47.2999C46.575 47.4187 48.375 47.8562 49.2375 48.5124C50.325 49.3499 51.4562 52.4624 51.7375 53.8624C51.9187 54.7687 52.2437 56.9874 52.3625 57.8937C52.475 58.6812 53.4438 64.6687 53.5313 65.4562" stroke="url(#paint14_linear_167_14436)" stroke-width="1.25" stroke-miterlimit="10"/>
</g>
<defs>
<linearGradient id="paint0_linear_167_14436" x1="1.25625" y1="40.0688" x2="40.125" y2="40.0688" gradientUnits="userSpaceOnUse">
<stop stop-color="#4BF8BB"/>
<stop offset="0.07" stop-color="#54F5C1" stop-opacity="0.83"/>
<stop offset="0.16" stop-color="#5EF2C7" stop-opacity="0.64"/>
<stop offset="0.26" stop-color="#66EECC" stop-opacity="0.47"/>
<stop offset="0.36" stop-color="#6CECCF" stop-opacity="0.34"/>
<stop offset="0.47" stop-color="#72EAD3" stop-opacity="0.23"/>
<stop offset="0.58" stop-color="#75E9D6" stop-opacity="0.16"/>
<stop offset="0.7" stop-color="#77E8D8" stop-opacity="0.11"/>
<stop offset="0.84" stop-color="#78E8D8" stop-opacity="0.1"/>
</linearGradient>
<linearGradient id="paint1_linear_167_14436" x1="5.35635" y1="42.7438" x2="40.1126" y2="42.7438" gradientUnits="userSpaceOnUse">
<stop stop-color="#4BF8BB"/>
<stop offset="0.04" stop-color="#54F5C1" stop-opacity="0.82"/>
<stop offset="0.1" stop-color="#5CF2C5" stop-opacity="0.63"/>
<stop offset="0.15" stop-color="#64EFC9" stop-opacity="0.47"/>
<stop offset="0.21" stop-color="#69EDCE" stop-opacity="0.34"/>
<stop offset="0.27" stop-color="#6FEBD0" stop-opacity="0.24"/>
<stop offset="0.34" stop-color="#72EAD3" stop-opacity="0.17"/>
<stop offset="0.41" stop-color="#73E9D4" stop-opacity="0.13"/>
<stop offset="0.51" stop-color="#74E9D5" stop-opacity="0.11"/>
<stop offset="0.84" stop-color="#78E8D8" stop-opacity="0.11"/>
</linearGradient>
<linearGradient id="paint2_linear_167_14436" x1="9.45645" y1="45.4189" x2="40.0939" y2="45.4189" gradientUnits="userSpaceOnUse">
<stop stop-color="#4BF8BB"/>
<stop offset="0.05" stop-color="#54F4C1" stop-opacity="0.81"/>
<stop offset="0.1" stop-color="#5CF2C7" stop-opacity="0.63"/>
<stop offset="0.15" stop-color="#64EFCA" stop-opacity="0.47"/>
<stop offset="0.21" stop-color="#69EDCF" stop-opacity="0.35"/>
<stop offset="0.27" stop-color="#6FEBD1" stop-opacity="0.25"/>
<stop offset="0.33" stop-color="#72EAD5" stop-opacity="0.18"/>
<stop offset="0.41" stop-color="#73E9D6" stop-opacity="0.14"/>
<stop offset="0.51" stop-color="#74E9D6" stop-opacity="0.13"/>
<stop offset="0.84" stop-color="#78E8D8" stop-opacity="0.13"/>
</linearGradient>
<linearGradient id="paint3_linear_167_14436" x1="13.5562" y1="48.0939" x2="40.0811" y2="48.0939" gradientUnits="userSpaceOnUse">
<stop stop-color="#4BF8BB"/>
<stop offset="0.05" stop-color="#55F4C0" stop-opacity="0.81"/>
<stop offset="0.1" stop-color="#5EF2C7" stop-opacity="0.63"/>
<stop offset="0.15" stop-color="#65EFCB" stop-opacity="0.48"/>
<stop offset="0.2" stop-color="#6AEDCF" stop-opacity="0.35"/>
<stop offset="0.26" stop-color="#70EBD2" stop-opacity="0.26"/>
<stop offset="0.33" stop-color="#73EAD5" stop-opacity="0.19"/>
<stop offset="0.4" stop-color="#74E9D6" stop-opacity="0.15"/>
<stop offset="0.51" stop-color="#75E9D6" stop-opacity="0.14"/>
<stop offset="0.84" stop-color="#78E8D8" stop-opacity="0.14"/>
</linearGradient>
<linearGradient id="paint4_linear_167_14436" x1="17.6625" y1="50.7687" x2="40.0625" y2="50.7687" gradientUnits="userSpaceOnUse">
<stop stop-color="#4BF8BB"/>
<stop offset="0.05" stop-color="#55F4C2" stop-opacity="0.8"/>
<stop offset="0.09" stop-color="#5EF2C7" stop-opacity="0.63"/>
<stop offset="0.15" stop-color="#65EFCC" stop-opacity="0.48"/>
<stop offset="0.2" stop-color="#6BEDD0" stop-opacity="0.36"/>
<stop offset="0.26" stop-color="#71EBD2" stop-opacity="0.27"/>
<stop offset="0.32" stop-color="#74EAD5" stop-opacity="0.2"/>
<stop offset="0.4" stop-color="#75E9D6" stop-opacity="0.16"/>
<stop offset="0.51" stop-color="#76E9D7" stop-opacity="0.15"/>
<stop offset="0.84" stop-color="#78E8D8" stop-opacity="0.15"/>
</linearGradient>
<linearGradient id="paint5_linear_167_14436" x1="21.7626" y1="53.45" x2="40.0501" y2="53.45" gradientUnits="userSpaceOnUse">
<stop stop-color="#4BF8BD" stop-opacity="0.99"/>
<stop offset="0.05" stop-color="#56F4C2" stop-opacity="0.8"/>
<stop offset="0.09" stop-color="#5FF1C7" stop-opacity="0.63"/>
<stop offset="0.14" stop-color="#66EECA" stop-opacity="0.48"/>
<stop offset="0.19" stop-color="#6BECCF" stop-opacity="0.37"/>
<stop offset="0.25" stop-color="#71EAD2" stop-opacity="0.28"/>
<stop offset="0.31" stop-color="#74E9D5" stop-opacity="0.21"/>
<stop offset="0.39" stop-color="#75E8D6" stop-opacity="0.17"/>
<stop offset="0.51" stop-color="#76E8D6" stop-opacity="0.16"/>
<stop offset="0.84" stop-color="#78E8D8" stop-opacity="0.16"/>
</linearGradient>
<linearGradient id="paint6_linear_167_14436" x1="25.8623" y1="56.1251" x2="40.0311" y2="56.1251" gradientUnits="userSpaceOnUse">
<stop stop-color="#4BF8BB"/>
<stop offset="0.1" stop-color="#57F4C3" stop-opacity="0.78"/>
<stop offset="0.2" stop-color="#63EFCA" stop-opacity="0.56"/>
<stop offset="0.3" stop-color="#6CECCF" stop-opacity="0.4"/>
<stop offset="0.39" stop-color="#73EAD5" stop-opacity="0.27"/>
<stop offset="0.47" stop-color="#77E8D7" stop-opacity="0.2"/>
<stop offset="0.53" stop-color="#78E8D8" stop-opacity="0.18"/>
</linearGradient>
<linearGradient id="paint7_linear_167_14436" x1="1.25625" y1="40.0688" x2="40.125" y2="40.0688" gradientUnits="userSpaceOnUse">
<stop stop-color="#4BF8BB"/>
<stop offset="0.04" stop-color="#50F6BF" stop-opacity="0.9"/>
<stop offset="0.16" stop-color="#5CF2C5" stop-opacity="0.63"/>
<stop offset="0.27" stop-color="#66EECC" stop-opacity="0.4"/>
<stop offset="0.37" stop-color="#6EECD2" stop-opacity="0.23"/>
<stop offset="0.46" stop-color="#74E9D5" stop-opacity="0.1"/>
<stop offset="0.55" stop-color="#77E8D7" stop-opacity="0.03"/>
<stop offset="0.61" stop-color="#78E8D8" stop-opacity="0"/>
</linearGradient>
<linearGradient id="paint8_linear_167_14436" x1="78.7438" y1="40.0687" x2="39.875" y2="40.0687" gradientUnits="userSpaceOnUse">
<stop stop-color="#78E8D8"/>
<stop offset="0.05" stop-color="#78E8D8" stop-opacity="0.88"/>
<stop offset="0.15" stop-color="#78E8D8" stop-opacity="0.67"/>
<stop offset="0.25" stop-color="#78E8D8" stop-opacity="0.5"/>
<stop offset="0.35" stop-color="#78E8D8" stop-opacity="0.35"/>
<stop offset="0.46" stop-color="#78E8D8" stop-opacity="0.24"/>
<stop offset="0.57" stop-color="#78E8D8" stop-opacity="0.16"/>
<stop offset="0.69" stop-color="#78E8D8" stop-opacity="0.11"/>
<stop offset="0.84" stop-color="#78E8D8" stop-opacity="0.1"/>
</linearGradient>
<linearGradient id="paint9_linear_167_14436" x1="74.6435" y1="42.7437" x2="39.8872" y2="42.7437" gradientUnits="userSpaceOnUse">
<stop stop-color="#78E8D8"/>
<stop offset="0.05" stop-color="#78E8D8" stop-opacity="0.87"/>
<stop offset="0.15" stop-color="#78E8D8" stop-opacity="0.67"/>
<stop offset="0.24" stop-color="#78E8D8" stop-opacity="0.5"/>
<stop offset="0.34" stop-color="#78E8D8" stop-opacity="0.36"/>
<stop offset="0.45" stop-color="#78E8D8" stop-opacity="0.25"/>
<stop offset="0.56" stop-color="#78E8D8" stop-opacity="0.17"/>
<stop offset="0.69" stop-color="#78E8D8" stop-opacity="0.13"/>
<stop offset="0.84" stop-color="#78E8D8" stop-opacity="0.11"/>
</linearGradient>
<linearGradient id="paint10_linear_167_14436" x1="70.5438" y1="45.4187" x2="39.9062" y2="45.4187" gradientUnits="userSpaceOnUse">
<stop stop-color="#78E8D8"/>
<stop offset="0.03" stop-color="#77E8D8" stop-opacity="0.86"/>
<stop offset="0.09" stop-color="#76E8D8" stop-opacity="0.67"/>
<stop offset="0.14" stop-color="#76E9D7" stop-opacity="0.5"/>
<stop offset="0.2" stop-color="#75E9D6" stop-opacity="0.36"/>
<stop offset="0.26" stop-color="#75E9D6" stop-opacity="0.26"/>
<stop offset="0.33" stop-color="#74E9D6" stop-opacity="0.18"/>
<stop offset="0.4" stop-color="#74E9D6" stop-opacity="0.14"/>
<stop offset="0.51" stop-color="#74E9D6" stop-opacity="0.13"/>
<stop offset="0.84" stop-color="#78E8D8" stop-opacity="0.13"/>
</linearGradient>
<linearGradient id="paint11_linear_167_14436" x1="66.4377" y1="48.0937" x2="39.9189" y2="48.0937" gradientUnits="userSpaceOnUse">
<stop stop-color="#78E8D8"/>
<stop offset="0.03" stop-color="#77E8D8" stop-opacity="0.85"/>
<stop offset="0.09" stop-color="#77E8D7" stop-opacity="0.66"/>
<stop offset="0.14" stop-color="#76E9D8" stop-opacity="0.5"/>
<stop offset="0.2" stop-color="#76E9D7" stop-opacity="0.37"/>
<stop offset="0.26" stop-color="#75E9D8" stop-opacity="0.27"/>
<stop offset="0.32" stop-color="#75E9D6" stop-opacity="0.19"/>
<stop offset="0.4" stop-color="#75E9D6" stop-opacity="0.15"/>
<stop offset="0.51" stop-color="#75E9D6" stop-opacity="0.14"/>
<stop offset="0.84" stop-color="#78E8D8" stop-opacity="0.14"/>
</linearGradient>
<linearGradient id="paint12_linear_167_14436" x1="62.3375" y1="50.7687" x2="39.9375" y2="50.7687" gradientUnits="userSpaceOnUse">
<stop stop-color="#78E8D8"/>
<stop offset="0.03" stop-color="#78E8D7" stop-opacity="0.85"/>
<stop offset="0.08" stop-color="#77E8D8" stop-opacity="0.66"/>
<stop offset="0.14" stop-color="#77E9D7" stop-opacity="0.5"/>
<stop offset="0.19" stop-color="#77E9D7" stop-opacity="0.37"/>
<stop offset="0.25" stop-color="#76E9D7" stop-opacity="0.27"/>
<stop offset="0.32" stop-color="#76E9D7" stop-opacity="0.2"/>
<stop offset="0.39" stop-color="#76E9D7" stop-opacity="0.16"/>
<stop offset="0.51" stop-color="#76E9D7" stop-opacity="0.15"/>
<stop offset="0.84" stop-color="#78E8D8" stop-opacity="0.15"/>
</linearGradient>
<linearGradient id="paint13_linear_167_14436" x1="58.2377" y1="53.4501" x2="39.9502" y2="53.4501" gradientUnits="userSpaceOnUse">
<stop stop-color="#78E8D8"/>
<stop offset="0.04" stop-color="#78E8D7" stop-opacity="0.84"/>
<stop offset="0.08" stop-color="#77E8D8" stop-opacity="0.66"/>
<stop offset="0.13" stop-color="#77E8D7" stop-opacity="0.51"/>
<stop offset="0.19" stop-color="#77E8D7" stop-opacity="0.38"/>
<stop offset="0.24" stop-color="#76E8D6" stop-opacity="0.28"/>
<stop offset="0.31" stop-color="#76E8D6" stop-opacity="0.22"/>
<stop offset="0.39" stop-color="#76E8D6" stop-opacity="0.17"/>
<stop offset="0.51" stop-color="#76E8D6" stop-opacity="0.16"/>
<stop offset="0.84" stop-color="#78E8D8" stop-opacity="0.16"/>
</linearGradient>
<linearGradient id="paint14_linear_167_14436" x1="54.1375" y1="56.1249" x2="39.9688" y2="56.1249" gradientUnits="userSpaceOnUse">
<stop stop-color="#78E8D8"/>
<stop offset="0.04" stop-color="#78E8D8" stop-opacity="0.84"/>
<stop offset="0.08" stop-color="#78E8D7" stop-opacity="0.66"/>
<stop offset="0.13" stop-color="#77E8D8" stop-opacity="0.51"/>
<stop offset="0.18" stop-color="#77E8D8" stop-opacity="0.39"/>
<stop offset="0.24" stop-color="#77E8D7" stop-opacity="0.29"/>
<stop offset="0.3" stop-color="#77E8D7" stop-opacity="0.23"/>
<stop offset="0.38" stop-color="#77E8D7" stop-opacity="0.19"/>
<stop offset="0.51" stop-color="#77E8D7" stop-opacity="0.18"/>
<stop offset="0.84" stop-color="#78E8D8" stop-opacity="0.18"/>
</linearGradient>
<clipPath id="clip0_167_14436">
<rect width="80" height="80" fill="white" transform="translate(0 0.5)"/>
</clipPath>
</defs>
</svg>
