<svg width="80" height="81" viewBox="0 0 80 81" fill="none" xmlns="http://www.w3.org/2000/svg">
<g clip-path="url(#clip0_167_14681)">
<path d="M75.625 65.6562V44.7188L57.8125 34.25L40 44.7188V65.6562L57.8125 76.125L75.625 65.6562Z" stroke="url(#paint0_linear_167_14681)" stroke-width="1.25" stroke-miterlimit="10"/>
<path d="M75.625 65.6562V44.7188L57.8125 34.25L40 44.7188V65.6562L57.8125 76.125L75.625 65.6562Z" stroke="url(#paint1_linear_167_14681)" stroke-width="1.25" stroke-miterlimit="10"/>
<path opacity="0.65" d="M70.7812 62.8125V47.5625L57.8125 39.9375L44.8438 47.5625V62.8125L57.8125 70.4375L70.7812 62.8125Z" stroke="url(#paint2_linear_167_14681)" stroke-width="1.25" stroke-miterlimit="10"/>
<path opacity="0.3" d="M65.9375 59.9688V50.4063L57.8125 45.6313L49.6875 50.4063V59.9688L57.8125 64.7438L65.9375 59.9688Z" stroke="url(#paint3_linear_167_14681)" stroke-width="1.25" stroke-miterlimit="10"/>
<path d="M57.8125 34.175V13.0812L40 2.53125L22.1875 13.0812V34.175L40 44.7188L57.8125 34.175Z" stroke="url(#paint4_linear_167_14681)" stroke-width="1.25" stroke-miterlimit="10"/>
<path opacity="0.65" d="M52.9688 31.2875V15.9625L40 8.30005L27.0312 15.9625V31.2875L40 38.95L52.9688 31.2875Z" stroke="url(#paint5_linear_167_14681)" stroke-width="1.25" stroke-miterlimit="10"/>
<path opacity="0.3" d="M48.125 28.4063V18.8438L40 14.0688L31.875 18.8438V28.4063L40 33.1813L48.125 28.4063Z" stroke="url(#paint6_linear_167_14681)" stroke-width="1.25" stroke-miterlimit="10"/>
<path d="M40 65.6562V44.7188L22.1875 34.25L4.375 44.7188V65.6562L22.1875 76.125L40 65.6562Z" stroke="url(#paint7_linear_167_14681)" stroke-width="1.25" stroke-miterlimit="10"/>
<path opacity="0.65" d="M35.1562 62.8125V47.5625L22.1875 39.9375L9.21875 47.5625V62.8125L22.1875 70.4375L35.1562 62.8125Z" stroke="url(#paint8_linear_167_14681)" stroke-width="1.25" stroke-miterlimit="10"/>
<path opacity="0.3" d="M30.3125 59.9688V50.4063L22.1875 45.6313L14.0625 50.4063V59.9688L22.1875 64.7438L30.3125 59.9688Z" stroke="url(#paint9_linear_167_14681)" stroke-width="1.25" stroke-miterlimit="10"/>
<path d="M40 66.75V44.7188L21.25 33.625" stroke="white" stroke-width="1.25" stroke-miterlimit="10"/>
<path d="M40 44.7188L58.75 33.625" stroke="white" stroke-width="1.25" stroke-miterlimit="10"/>
</g>
<defs>
<linearGradient id="paint0_linear_167_14681" x1="72.4438" y1="69.8187" x2="43.1813" y2="40.5562" gradientUnits="userSpaceOnUse">
<stop offset="0.17" stop-color="#78E8D8" stop-opacity="0.2"/>
<stop offset="0.24" stop-color="#78E8D8" stop-opacity="0.31"/>
<stop offset="0.39" stop-color="#78E8D8" stop-opacity="0.58"/>
<stop offset="0.59" stop-color="#78E8D8"/>
</linearGradient>
<linearGradient id="paint1_linear_167_14681" x1="43.1812" y1="40.5563" x2="72.4437" y2="69.8188" gradientUnits="userSpaceOnUse">
<stop offset="0.17" stop-color="#78E8D8" stop-opacity="0.2"/>
<stop offset="0.24" stop-color="#78E8D8" stop-opacity="0.31"/>
<stop offset="0.39" stop-color="#78E8D8" stop-opacity="0.58"/>
<stop offset="0.59" stop-color="#78E8D8"/>
</linearGradient>
<linearGradient id="paint2_linear_167_14681" x1="47.025" y1="44.4" x2="68.6" y2="65.975" gradientUnits="userSpaceOnUse">
<stop offset="0.17" stop-color="#78E8D8" stop-opacity="0.2"/>
<stop offset="0.24" stop-color="#78E8D8" stop-opacity="0.31"/>
<stop offset="0.39" stop-color="#78E8D8" stop-opacity="0.58"/>
<stop offset="0.59" stop-color="#78E8D8"/>
</linearGradient>
<linearGradient id="paint3_linear_167_14681" x1="50.8688" y1="48.2438" x2="64.7563" y2="62.1313" gradientUnits="userSpaceOnUse">
<stop offset="0.17" stop-color="#78E8D8" stop-opacity="0.2"/>
<stop offset="0.24" stop-color="#78E8D8" stop-opacity="0.31"/>
<stop offset="0.39" stop-color="#78E8D8" stop-opacity="0.58"/>
<stop offset="0.59" stop-color="#78E8D8"/>
</linearGradient>
<linearGradient id="paint4_linear_167_14681" x1="25.3313" y1="8.95625" x2="54.6688" y2="38.2938" gradientUnits="userSpaceOnUse">
<stop offset="0.17" stop-color="#4BF8BB" stop-opacity="0.2"/>
<stop offset="0.23" stop-color="#4BF8BB" stop-opacity="0.3"/>
<stop offset="0.38" stop-color="#4BF8BB" stop-opacity="0.56"/>
<stop offset="0.58" stop-color="#4BF8BB" stop-opacity="0.98"/>
<stop offset="0.59" stop-color="#4BF8BB"/>
</linearGradient>
<linearGradient id="paint5_linear_167_14681" x1="29.1938" y1="12.8188" x2="50.8063" y2="34.4313" gradientUnits="userSpaceOnUse">
<stop offset="0.17" stop-color="#4BF8BB" stop-opacity="0.2"/>
<stop offset="0.23" stop-color="#4BF8BB" stop-opacity="0.3"/>
<stop offset="0.38" stop-color="#4BF8BB" stop-opacity="0.56"/>
<stop offset="0.58" stop-color="#4BF8BB" stop-opacity="0.98"/>
<stop offset="0.59" stop-color="#4BF8BB"/>
</linearGradient>
<linearGradient id="paint6_linear_167_14681" x1="33.0563" y1="16.6813" x2="46.9438" y2="30.5688" gradientUnits="userSpaceOnUse">
<stop offset="0.17" stop-color="#4BF8BB" stop-opacity="0.2"/>
<stop offset="0.23" stop-color="#4BF8BB" stop-opacity="0.3"/>
<stop offset="0.38" stop-color="#4BF8BB" stop-opacity="0.56"/>
<stop offset="0.58" stop-color="#4BF8BB" stop-opacity="0.98"/>
<stop offset="0.59" stop-color="#4BF8BB"/>
</linearGradient>
<linearGradient id="paint7_linear_167_14681" x1="36.8188" y1="69.8187" x2="7.55625" y2="40.5562" gradientUnits="userSpaceOnUse">
<stop offset="0.16" stop-color="#4BF8BB" stop-opacity="0.2"/>
<stop offset="0.23" stop-color="#4BF8BB" stop-opacity="0.3"/>
<stop offset="0.37" stop-color="#4BF8BB" stop-opacity="0.56"/>
<stop offset="0.58" stop-color="#4BF8BB" stop-opacity="0.98"/>
<stop offset="0.59" stop-color="#4BF8BB"/>
</linearGradient>
<linearGradient id="paint8_linear_167_14681" x1="32.975" y1="65.975" x2="11.4" y2="44.4" gradientUnits="userSpaceOnUse">
<stop offset="0.16" stop-color="#4BF8BB" stop-opacity="0.3"/>
<stop offset="0.17" stop-color="#4BF8BB" stop-opacity="0.6"/>
<stop offset="0.29" stop-color="#4BF8BB" stop-opacity="0.7"/>
<stop offset="0.55" stop-color="#4BF8BB" stop-opacity="0.96"/>
<stop offset="0.59" stop-color="#4BF8BB"/>
</linearGradient>
<linearGradient id="paint9_linear_167_14681" x1="29.1312" y1="62.1313" x2="15.2437" y2="48.2438" gradientUnits="userSpaceOnUse">
<stop offset="0.17" stop-color="#4BF8BB" stop-opacity="0.2"/>
<stop offset="0.23" stop-color="#4BF8BB" stop-opacity="0.3"/>
<stop offset="0.38" stop-color="#4BF8BB" stop-opacity="0.56"/>
<stop offset="0.58" stop-color="#4BF8BB" stop-opacity="0.98"/>
<stop offset="0.59" stop-color="#4BF8BB"/>
</linearGradient>
<clipPath id="clip0_167_14681">
<rect width="80" height="80" fill="white" transform="translate(0 0.5)"/>
</clipPath>
</defs>
</svg>
