<svg width="80" height="80" viewBox="0 0 80 80" fill="none" xmlns="http://www.w3.org/2000/svg">
<g clip-path="url(#clip0_167_13964)">
<path d="M76.8749 40C76.8749 35.8625 72.2687 32.0875 64.6249 29.4938C67.7499 22.7625 68.0874 17.4563 65.3187 14.6938C61.6374 11.0188 53.4437 12.8188 43.3687 19.4563L44.0624 20.5C53.3062 14.375 61.3062 12.45 64.4374 15.5813C66.7624 17.9 66.3124 22.9 63.3999 29.0938C59.3534 27.8849 55.2049 27.0481 51.0062 26.5938L50.8624 27.8438C54.92 28.2927 58.9296 29.1021 62.8437 30.2625C61.851 32.233 60.7385 34.1407 59.5124 35.975L60.5562 36.6625C61.846 34.7216 63.0189 32.7055 64.0687 30.625C71.2499 33.0063 75.6249 36.4063 75.6249 40C75.6249 43.5938 71.2499 46.9938 64.0687 49.375C63.018 47.303 61.8451 45.2953 60.5562 43.3625L59.5124 44.05C60.7385 45.8843 61.851 47.792 62.8437 49.7625C58.9298 50.925 54.9202 51.7365 50.8624 52.1875L51.0062 53.4375C55.2049 52.9832 59.3534 52.1464 63.3999 50.9375C66.2937 57.1313 66.7624 62.1313 64.4374 64.45C61.3124 67.575 53.3062 65.65 44.0624 59.5313L43.3687 60.575C49.9812 64.95 55.7874 67.2188 60.0374 67.2188C62.2624 67.2188 64.0562 66.5938 65.3187 65.3438C68.0874 62.5813 67.7687 57.275 64.6249 50.5438C72.2687 47.9125 76.8749 44.1375 76.8749 40Z" fill="#4BF8BB"/>
<path d="M15.5625 64.4188C13.2375 62.1 13.6875 57.1 16.6 50.9063C20.6465 52.1151 24.795 52.9519 28.9937 53.4063L29.1375 52.1563C25.0799 51.7073 21.0703 50.8979 17.1562 49.7375C18.1489 47.767 19.2614 45.8593 20.4875 44.025L19.4437 43.3375C18.1516 45.277 16.9787 47.2932 15.9312 49.375C8.75 46.9938 4.375 43.5938 4.375 40C4.375 36.4063 8.75 33.0063 15.9312 30.625C16.9795 32.6983 18.1525 34.7061 19.4437 36.6375L20.4875 35.95C19.2614 34.1157 18.1489 32.208 17.1562 30.2375C21.0701 29.075 25.0797 28.2635 29.1375 27.8125L28.9937 26.5625C24.795 27.0169 20.6465 27.8537 16.6 29.0625C13.7062 22.8688 13.2375 17.8688 15.5625 15.55C18.6875 12.425 26.6937 14.3438 35.9312 20.4625L36.625 19.4188C26.5625 12.7938 18.3562 11.0188 14.6812 14.6938C11.9125 17.4563 12.2312 22.7625 15.375 29.4938C7.73125 32.0875 3.125 35.8625 3.125 40C3.125 44.1375 7.73125 47.9125 15.375 50.5063C12.25 57.2375 11.9125 62.5438 14.6812 65.3063C15.9312 66.5563 17.7375 67.1813 19.9625 67.1813C24.2125 67.1813 30.0187 64.9125 36.6312 60.5375L35.9375 59.5C26.6937 65.625 18.6937 67.55 15.5625 64.4188Z" fill="#4BF8BB"/>
<path d="M40.0001 64.6187L15.3813 40L40.0001 15.3812L64.6188 40L40.0001 64.6187ZM17.1501 40L40.0001 62.85L62.8501 40L40.0001 17.15L17.1501 40Z" fill="white"/>
<path d="M28.75 43.125C28.1319 43.125 27.5277 42.9417 27.0138 42.5983C26.4999 42.255 26.0994 41.7669 25.8629 41.1959C25.6264 40.6249 25.5645 39.9965 25.685 39.3903C25.8056 38.7842 26.1033 38.2273 26.5403 37.7903C26.9773 37.3533 27.5342 37.0556 28.1403 36.935C28.7465 36.8145 29.3749 36.8764 29.9459 37.1129C30.5169 37.3494 31.005 37.7499 31.3483 38.2638C31.6917 38.7777 31.875 39.3819 31.875 40C31.875 40.8288 31.5458 41.6237 30.9597 42.2097C30.3737 42.7958 29.5788 43.125 28.75 43.125ZM28.75 38.125C28.3792 38.125 28.0166 38.235 27.7083 38.441C27.4 38.647 27.1596 38.9399 27.0177 39.2825C26.8758 39.6251 26.8387 40.0021 26.911 40.3658C26.9834 40.7295 27.162 41.0636 27.4242 41.3258C27.6864 41.5881 28.0205 41.7666 28.3842 41.839C28.7479 41.9113 29.1249 41.8742 29.4675 41.7323C29.8101 41.5904 30.103 41.35 30.309 41.0417C30.515 40.7334 30.625 40.3708 30.625 40C30.625 39.5027 30.4275 39.0258 30.0758 38.6742C29.7242 38.3225 29.2473 38.125 28.75 38.125Z" fill="white"/>
<path d="M40 43.125C39.3819 43.125 38.7777 42.9417 38.2638 42.5983C37.7499 42.255 37.3494 41.7669 37.1129 41.1959C36.8764 40.6249 36.8145 39.9965 36.935 39.3903C37.0556 38.7842 37.3533 38.2273 37.7903 37.7903C38.2273 37.3533 38.7842 37.0556 39.3903 36.935C39.9965 36.8145 40.6249 36.8764 41.1959 37.1129C41.7669 37.3494 42.255 37.7499 42.5983 38.2638C42.9417 38.7777 43.125 39.3819 43.125 40C43.125 40.8288 42.7958 41.6237 42.2097 42.2097C41.6237 42.7958 40.8288 43.125 40 43.125ZM40 38.125C39.6292 38.125 39.2666 38.235 38.9583 38.441C38.65 38.647 38.4096 38.9399 38.2677 39.2825C38.1258 39.6251 38.0887 40.0021 38.161 40.3658C38.2334 40.7295 38.412 41.0636 38.6742 41.3258C38.9364 41.5881 39.2705 41.7666 39.6342 41.839C39.9979 41.9113 40.3749 41.8742 40.7175 41.7323C41.0601 41.5904 41.353 41.35 41.559 41.0417C41.765 40.7334 41.875 40.3708 41.875 40C41.875 39.5027 41.6775 39.0258 41.3258 38.6742C40.9742 38.3225 40.4973 38.125 40 38.125Z" fill="white"/>
<path d="M51.25 43.125C50.6319 43.125 50.0277 42.9417 49.5138 42.5983C48.9999 42.255 48.5994 41.7669 48.3629 41.1959C48.1264 40.6249 48.0645 39.9965 48.185 39.3903C48.3056 38.7842 48.6033 38.2273 49.0403 37.7903C49.4773 37.3533 50.0342 37.0556 50.6403 36.935C51.2465 36.8145 51.8749 36.8764 52.4459 37.1129C53.0169 37.3494 53.505 37.7499 53.8483 38.2638C54.1917 38.7777 54.375 39.3819 54.375 40C54.375 40.8288 54.0458 41.6237 53.4597 42.2097C52.8737 42.7958 52.0788 43.125 51.25 43.125ZM51.25 38.125C50.8792 38.125 50.5166 38.235 50.2083 38.441C49.9 38.647 49.6596 38.9399 49.5177 39.2825C49.3758 39.6251 49.3387 40.0021 49.411 40.3658C49.4834 40.7295 49.662 41.0636 49.9242 41.3258C50.1864 41.5881 50.5205 41.7666 50.8842 41.839C51.2479 41.9113 51.6249 41.8742 51.9675 41.7323C52.3101 41.5904 52.603 41.35 52.809 41.0417C53.015 40.7334 53.125 40.3708 53.125 40C53.125 39.5027 52.9275 39.0258 52.5758 38.6742C52.2242 38.3225 51.7473 38.125 51.25 38.125Z" fill="white"/>
</g>
<defs>
<clipPath id="clip0_167_13964">
<rect width="80" height="80" fill="white"/>
</clipPath>
</defs>
</svg>
