<svg width="80" height="81" viewBox="0 0 80 81" fill="none" xmlns="http://www.w3.org/2000/svg">
<g clip-path="url(#clip0_167_13979)">
<path d="M15.373 33.625L20.85 36.788L20.8227 46.413L15.3457 43.25L15.373 33.625ZM19.4928 44.1041L19.5116 37.5511L16.7068 35.9312L16.688 42.4843L19.4928 44.1041Z" fill="#4EEFBB"/>
<path d="M25.474 39.4581L25.4509 47.545L25.4484 48.3138L24.1103 47.5413L24.1128 46.7719L24.1315 40.2188L22.729 39.4094L22.7334 37.8756L25.474 39.4581Z" fill="#4EEFBB"/>
<path d="M26.8531 48.3544L26.8487 49.8931L22.7056 47.5006L22.7099 45.9619L24.1124 46.7719L24.1099 47.5413L25.4481 48.3138L25.4506 47.545L26.8531 48.3544Z" fill="#4EEFBB"/>
<path d="M32.5653 43.5538L32.5428 51.6406L32.5403 52.4094L31.206 51.6388L31.2085 50.87L31.2272 44.3169L29.8247 43.5069L29.8291 41.9731L32.5653 43.5538Z" fill="#4EEFBB"/>
<path d="M29.2108 53.3375L34.6878 56.5L34.6606 66.125L29.1836 62.962L29.2108 53.3375ZM33.3267 63.8188L33.3455 57.2657L30.5408 55.646L30.5221 62.1991L33.3267 63.8188Z" fill="#4EEFBB"/>
<path d="M33.9444 52.45L33.94 53.9881L29.8013 51.5981L29.8056 50.06L31.2081 50.87L31.2056 51.6387L32.54 52.4094L32.5425 51.6406L33.9444 52.45Z" fill="#4EEFBB"/>
<path d="M15.3398 45.3267L20.8168 48.4897L20.7894 58.1147L15.3125 54.9515L15.3398 45.3267ZM19.4596 55.8104L19.4784 49.2573L16.6736 47.6375L16.6549 54.1906L19.4596 55.8104Z" fill="#4EEFBB"/>
<path d="M25.5205 51.2062L25.4974 59.2975L25.4955 60.0619L24.1612 59.2912L24.163 58.5269L24.1818 51.9737L22.7793 51.1637L22.7837 49.6256L25.5205 51.2062Z" fill="#4EEFBB"/>
<path d="M26.9 60.1075L26.8956 61.6406L22.7568 59.2506L22.7612 57.7169L24.1631 58.5269L24.1612 59.2912L25.4956 60.0619L25.4975 59.2975L26.9 60.1075Z" fill="#4EEFBB"/>
<path d="M70.3163 22.3073L39.6855 39.9537L40.3093 41.0364L70.9401 23.3901L70.3163 22.3073Z" fill="#4BF8BB"/>
<path d="M40.3117 76.3537L39.688 75.2712L69.9999 57.795V23.205L39.9999 5.90872L9.68674 23.385L9.06299 22.3025L39.9999 4.46622L71.2499 22.4825V58.5175L40.3117 76.3537Z" fill="#4BF8BB"/>
<path d="M39.9914 76.5119L39.6734 76.3453L8.75 58.5172V22.465L9.39637 22.1412L9.69362 22.306L40.625 40.139V76.1665L39.9914 76.5119ZM10 57.7952L39.375 74.7306V40.861L10 23.9253V57.7952Z" fill="white"/>
</g>
<defs>
<clipPath id="clip0_167_13979">
<rect width="80" height="80" fill="white" transform="translate(0 0.5)"/>
</clipPath>
</defs>
</svg>
