<?xml version="1.0" encoding="UTF-8" standalone="no"?>
<!DOCTYPE svg PUBLIC "-//W3C//DTD SVG 1.1//EN" "http://www.w3.org/Graphics/SVG/1.1/DTD/svg11.dtd">
<svg width="100%" height="100%" viewBox="0 0 401 401" version="1.1" xmlns="http://www.w3.org/2000/svg" xmlns:xlink="http://www.w3.org/1999/xlink" xml:space="preserve" xmlns:serif="http://www.serif.com/" style="fill-rule:evenodd;clip-rule:evenodd;stroke-linejoin:round;stroke-miterlimit:2;">
    <g transform="matrix(1,0,0,1,-9416.25,-3805.45)">
        <g transform="matrix(0.98834,0,0,0.94591,15557.7,-782.509)">
            <g transform="matrix(0.162147,0,0,0.16942,-6213.37,4850.84)">
                <path d="M1248,0C1937.3,0 2496,558.7 2496,1248C2496,1937.3 1937.3,2496 1248,2496C558.7,2496 0,1937.3 0,1248C0,558.7 558.7,0 1248,0Z" style="fill:none;stroke:rgb(116,213,191);stroke-width:6.24px;"/>
                <path d="M685.9,1248L686.8,1578L967.2,1743L967.2,1936.2L522.7,1675.5L522.7,1151.5L685.9,1248ZM685.9,918L685.9,1110.3L522.6,1013.7L522.6,821.4L685.9,724.8L850,821.4L685.9,918ZM1084.3,821.4L1247.6,724.8L1411.7,821.4L1247.6,918L1084.3,821.4Z" style="fill:none;fill-rule:nonzero;stroke:rgb(116,213,191);stroke-width:6.24px;"/>
                <path d="M803.9,1509.6L803.9,1316.4L967.2,1413L967.2,1605.3L803.9,1509.6ZM1084.3,1812.2L1247.6,1908.8L1411.7,1812.2L1411.7,2004.5L1247.6,2101.1L1084.3,2004.5L1084.3,1812.2ZM1645.9,821.4L1809.2,724.8L1973.3,821.4L1973.3,1013.7L1809.2,1110.3L1809.2,918L1645.9,821.4ZM1809.2,1578L1810.1,1248L1973.4,1151.4L1973.4,1675.4L1528.9,1936.1L1528.9,1742.9L1809.2,1578Z" style="fill:none;fill-rule:nonzero;stroke:rgb(116,213,191);stroke-width:6.24px;"/>
                <path d="M1692.1,1509.6L1528.8,1605.3L1528.8,1413L1692.1,1316.4L1692.1,1509.6Z" style="fill:none;fill-rule:nonzero;stroke:rgb(116,213,191);stroke-width:6.24px;"/>
                <path d="M1692.1,986.4L1693,1179.6L1411.8,1344.6L1411.8,1675.4L1248.5,1771.1L1085.2,1675.4L1085.2,1344.6L804,1179.6L804,986.4L968,889.8L1247.5,1055.6L1528.7,889.8L1692.8,986.4L1692.1,986.4ZM803.9,656.5L1247.6,394.9L1692.1,656.5L1528.8,753.1L1247.6,587.3L967.2,753.1L803.9,656.5Z" style="fill:none;fill-rule:nonzero;stroke:rgb(116,213,191);stroke-width:6.24px;"/>
            </g>
        </g>
    </g>
</svg>
