<?xml version="1.0" encoding="UTF-8" standalone="no"?>
<!DOCTYPE svg PUBLIC "-//W3C//DTD SVG 1.1//EN" "http://www.w3.org/Graphics/SVG/1.1/DTD/svg11.dtd">
<svg width="100%" height="100%" viewBox="0 0 400 401" version="1.1" xmlns="http://www.w3.org/2000/svg" xmlns:xlink="http://www.w3.org/1999/xlink" xml:space="preserve" xmlns:serif="http://www.serif.com/" style="fill-rule:evenodd;clip-rule:evenodd;stroke-linejoin:round;stroke-miterlimit:2;">
    <g transform="matrix(1,0,0,1,-219.5,-17176.3)">
        <g transform="matrix(5.66657,0,0,3.22938,42318,2199.47)">
            <g transform="matrix(0.6147,0,0,0.6147,-2862.49,1786.96)">
                <g transform="matrix(0.67277,0,0,1.18051,-7556,4637.05)">
                    <path d="M245.62,118.96C242.47,118.96 239.81,116.71 239.28,113.6L221.35,8.18C221.06,6.48 221.45,4.78 222.45,3.38C223.45,1.98 224.93,1.05 226.62,0.76C230.12,0.17 233.45,2.53 234.05,6.03L251.98,111.45C252.27,113.15 251.88,114.85 250.88,116.25C249.88,117.65 248.4,118.58 246.71,118.87C246.36,118.92 245.99,118.96 245.62,118.96Z" style="fill:none;fill-rule:nonzero;stroke:rgb(116,213,191);stroke-width:0.43px;"/>
                    <path d="M275.67,70.33C265.42,70.33 255.89,73.4 247.92,78.67L250.09,91.43C256.94,85.46 265.89,81.83 275.67,81.83C297.18,81.83 314.68,99.33 314.68,120.84C314.68,142.35 297.18,159.85 275.67,159.85C254.16,159.85 236.66,142.35 236.66,120.84C236.66,117.97 236.98,115.18 237.57,112.49L234.11,92.18C228.47,100.33 225.16,110.21 225.16,120.85C225.16,148.7 247.82,171.36 275.67,171.36C303.52,171.36 326.18,148.7 326.18,120.85C326.18,93 303.53,70.33 275.67,70.33Z" style="fill:none;fill-rule:nonzero;stroke:rgb(116,213,191);stroke-width:0.43px;"/>
                    <path d="M272.909,150.33C276.709,150.33 279.789,147.25 279.789,143.45C279.789,139.65 276.709,136.57 272.909,136.57C269.11,136.57 266.029,139.65 266.029,143.45C266.029,147.25 269.11,150.33 272.909,150.33Z" style="fill:none;fill-rule:nonzero;stroke:rgb(116,213,191);stroke-width:0.43px;"/>
                    <path d="M294.4,142.32C298.199,142.32 301.28,139.24 301.28,135.44C301.28,131.64 298.199,128.56 294.4,128.56C290.6,128.56 287.52,131.64 287.52,135.44C287.52,139.24 290.6,142.32 294.4,142.32Z" style="fill:none;fill-rule:nonzero;stroke:rgb(116,213,191);stroke-width:0.43px;"/>
                    <path d="M277.509,127.57C281.309,127.57 284.389,124.49 284.389,120.69C284.389,116.89 281.309,113.81 277.509,113.81C273.71,113.81 270.629,116.89 270.629,120.69C270.629,124.49 273.71,127.57 277.509,127.57Z" style="fill:none;fill-rule:nonzero;stroke:rgb(116,213,191);stroke-width:0.43px;"/>
                    <path d="M256.15,134.6C259.949,134.6 263.03,131.52 263.03,127.72C263.03,123.92 259.949,120.84 256.15,120.84C252.35,120.84 249.27,123.92 249.27,127.72C249.27,131.52 252.35,134.6 256.15,134.6Z" style="fill:none;fill-rule:nonzero;stroke:rgb(116,213,191);stroke-width:0.43px;"/>
                    <path d="M298.799,120.52C302.599,120.52 305.679,117.44 305.679,113.64C305.679,109.84 302.599,106.76 298.799,106.76C295,106.76 291.919,109.84 291.919,113.64C291.919,117.44 295,120.52 298.799,120.52Z" style="fill:none;fill-rule:nonzero;stroke:rgb(116,213,191);stroke-width:0.43px;"/>
                    <path d="M282.1,104.81C285.899,104.81 288.98,101.73 288.98,97.93C288.98,94.13 285.899,91.05 282.1,91.05C278.3,91.05 275.22,94.13 275.22,97.93C275.22,101.73 278.3,104.81 282.1,104.81Z" style="fill:none;fill-rule:nonzero;stroke:rgb(116,213,191);stroke-width:0.43px;"/>
                    <path d="M260.54,112.8C264.339,112.8 267.42,109.72 267.42,105.92C267.42,102.12 264.339,99.04 260.54,99.04C256.74,99.04 253.66,102.12 253.66,105.92C253.66,109.72 256.74,112.8 260.54,112.8Z" style="fill:none;fill-rule:nonzero;stroke:rgb(116,213,191);stroke-width:0.43px;"/>
                </g>
                <g transform="matrix(0.176473,0,0,0.309657,-7468,-681.082)">
                    <rect x="219.5" y="17176.8" width="650.724" height="650.724" style="fill:none;"/>
                </g>
            </g>
        </g>
    </g>
</svg>
