<?xml version="1.0" encoding="UTF-8" standalone="no"?>
<!DOCTYPE svg PUBLIC "-//W3C//DTD SVG 1.1//EN" "http://www.w3.org/Graphics/SVG/1.1/DTD/svg11.dtd">
<svg width="100%" height="100%" viewBox="0 0 401 401" version="1.1" xmlns="http://www.w3.org/2000/svg" xmlns:xlink="http://www.w3.org/1999/xlink" xml:space="preserve" xmlns:serif="http://www.serif.com/" style="fill-rule:evenodd;clip-rule:evenodd;stroke-linejoin:round;stroke-miterlimit:2;">
    <g transform="matrix(1,0,0,1,-194,-14194)">
        <g transform="matrix(5.66657,0,0,3.22938,42318,2199.47)">
            <g id="fantom" transform="matrix(2.20592,0,0,3.87071,-7433.68,3714.33)">
                <circle cx="16" cy="16" r="16" style="fill:none;stroke:rgb(116,213,191);stroke-width:0.08px;"/>
                <path id="parent" d="M10,9.4L10,22.5L16,25.9L22,22.5L22,9.4L16,6L10,9.4Z" style="fill:none;"/>
                <clipPath id="_clip1">
                    <path id="parent1" serif:id="parent" d="M10,9.4L10,22.5L16,25.9L22,22.5L22,9.4L16,6L10,9.4Z"/>
                </clipPath>
                <g clip-path="url(#_clip1)">
                    <path d="M20.8,21.9L16,24.7L11.2,21.9L11.2,17L16,19.8L20.8,17L20.8,21.9Z" style="stroke:rgb(116,213,191);stroke-width:0.08px;"/>
                    <path d="M16.6,13.9L20.2,16L16.6,18.1L16.6,13.9Z" style="stroke:rgb(116,213,191);stroke-width:0.08px;"/>
                    <path d="M15.4,18.1L11.8,16L15.4,13.9L15.4,18.1Z" style="stroke:rgb(116,213,191);stroke-width:0.08px;"/>
                    <path d="M17.2,12.9L20.8,10.8L20.8,15L17.2,12.9Z" style="stroke:rgb(116,213,191);stroke-width:0.08px;"/>
                    <path d="M11.2,10.8L14.8,12.9L11.2,15L11.2,10.8Z" style="stroke:rgb(116,213,191);stroke-width:0.08px;"/>
                    <path d="M20.2,9.8L16,12.2L11.8,9.8L16,7.3L20.2,9.8Z" style="stroke:rgb(116,213,191);stroke-width:0.08px;"/>
                </g>
                <path id="parent2" serif:id="parent" d="M10,9.4L10,22.5L16,25.9L22,22.5L22,9.4L16,6L10,9.4Z" style="fill:none;stroke:rgb(116,213,191);stroke-width:0.08px;"/>
            </g>
        </g>
    </g>
</svg>
