<?xml version="1.0" encoding="UTF-8" standalone="no"?>
<!DOCTYPE svg PUBLIC "-//W3C//DTD SVG 1.1//EN" "http://www.w3.org/Graphics/SVG/1.1/DTD/svg11.dtd">
<svg width="100%" height="100%" viewBox="0 0 401 401" version="1.1" xmlns="http://www.w3.org/2000/svg" xmlns:xlink="http://www.w3.org/1999/xlink" xml:space="preserve" xmlns:serif="http://www.serif.com/" style="fill-rule:evenodd;clip-rule:evenodd;stroke-linejoin:round;stroke-miterlimit:2;">
    <g transform="matrix(1,0,0,1,-8988.25,-2716.27)">
        <g transform="matrix(0.98834,0,0,0.94591,15557.7,-782.509)">
            <g transform="matrix(0.945604,0,0,0.98802,-6646.42,3699.37)">
                <path d="M125.8,243.7C138.1,243.7 150.1,239.6 159.8,232.1L81.8,154.1C63,178.4 67.5,213.4 91.8,232.2C101.6,239.6 113.5,243.7 125.8,243.7Z" style="fill:none;fill-rule:nonzero;stroke:rgb(116,213,191);stroke-width:1.07px;"/>
                <path d="M357.8,188C357.8,175.7 353.7,163.7 346.2,154L268.2,232C292.5,250.8 327.4,246.3 346.2,222C353.7,212.3 357.8,200.3 357.8,188Z" style="fill:none;fill-rule:nonzero;stroke:rgb(116,213,191);stroke-width:1.07px;"/>
                <path d="M397.1,103.1L362.6,137.6C390.4,170.9 386,220.5 352.7,248.3C323.5,272.7 281.1,272.7 251.9,248.3L214,286.2L176.2,248.4C142.9,276.2 93.3,271.8 65.5,238.5C41.1,209.3 41.1,166.9 65.5,137.7L47.8,120L31,103.1C10.7,136.5 0,174.9 0,214C0,332.2 95.8,428 214,428C332.2,428 428,332.2 428,214C428.1,174.9 417.3,136.5 397.1,103.1Z" style="fill:none;fill-rule:nonzero;stroke:rgb(116,213,191);stroke-width:1.07px;"/>
                <path d="M368.8,66.3C287.3,-19.2 151.9,-22.4 66.4,59.1C63.9,61.5 61.5,63.9 59.2,66.3C53.9,71.9 48.9,77.7 44.2,83.8L214,253.7L383.8,83.8C379.2,77.7 374.1,71.9 368.8,66.3ZM214,28C264,28 310.6,47.3 345.6,82.5L214,214.1L82.4,82.5C117.4,47.3 164,28 214,28Z" style="fill:none;fill-rule:nonzero;stroke:rgb(116,213,191);stroke-width:1.07px;"/>
            </g>
        </g>
    </g>
</svg>
