<?xml version="1.0" encoding="UTF-8" standalone="no"?>
<!DOCTYPE svg PUBLIC "-//W3C//DTD SVG 1.1//EN" "http://www.w3.org/Graphics/SVG/1.1/DTD/svg11.dtd">
<svg width="100%" height="100%" viewBox="0 0 400 401" version="1.1" xmlns="http://www.w3.org/2000/svg" xmlns:xlink="http://www.w3.org/1999/xlink" xml:space="preserve" xmlns:serif="http://www.serif.com/" style="fill-rule:evenodd;clip-rule:evenodd;stroke-linejoin:round;stroke-miterlimit:2;">
    <g transform="matrix(1,0,0,1,-768.538,-15473.7)">
        <g transform="matrix(5.66657,0,0,3.22938,42318,2199.47)">
            <g transform="matrix(0.0975126,0,0,0.171105,-7352.2,4097.7)">
                <path d="M560.3,75.4C410.8,75.4 289.7,196.6 289.6,346.1C289.6,363.2 291.2,380.3 294.4,397.1L329.4,373.2C390.9,331 490.6,331 552,373.2L588.7,398.4L608.6,412.1C664,450.1 753.8,450.1 809.1,412.1L825.4,401C855.4,254.5 761,111.4 614.5,81.3C596.7,77.6 578.6,75.8 560.4,75.8L560.3,75.4Z" style="fill:none;fill-rule:nonzero;stroke:rgb(116,213,191);stroke-width:1.81px;"/>
                <path d="M712.4,508.7C673.7,509.4 635.7,498.6 603.3,477.7L546.8,439C484.1,400.5 405,400.5 342.2,439L305.7,464C298.5,469 288.6,467.1 283.6,459.9C278.6,452.7 280.5,442.8 287.7,437.8L324.2,412.8C397.8,367.1 491,367.1 564.6,412.8L621.1,451.5C677,485.8 747.5,485.8 803.4,451.5L824.8,436.8C832,431.8 841.9,433.7 846.9,440.9C851.9,448.1 850,458 842.8,463L821.4,477.7C789,498.5 751,509.3 712.4,508.7" style="fill:none;fill-rule:nonzero;stroke:rgb(116,213,191);stroke-width:1.81px;"/>
                <path d="M443.3,622.4L443.3,469.4C443.2,466.2 443.3,463 443.7,459.8C444.7,451.1 452.1,444.5 460.9,444.5C469.4,444.8 476.3,451.3 477.1,459.8C477.8,465.1 477.9,470.5 477.7,475.8L477.7,780.8C478.1,790.7 470.4,798.9 460.5,799.3L460.2,799.3C450.5,798.8 443.1,790.5 443.6,780.8C443.6,780.5 443.6,780.2 443.7,780L443.7,678.2L443.3,622.4Z" style="fill:none;fill-rule:nonzero;stroke:rgb(116,213,191);stroke-width:1.81px;"/>
                <path d="M411.2,545.4L411.2,621.4C411.2,634.4 404.1,642.8 394.4,642.8C384.8,642.8 377.1,633.7 377,621.4L377,469.3C377,456 384.8,447 394.9,447.9C405,448.8 411,456.4 411.1,469.8C411.2,494.7 411.2,520 411.2,545.4" style="fill:none;fill-rule:nonzero;stroke:rgb(116,213,191);stroke-width:1.81px;"/>
                <path d="M509.9,599.8L509.9,492C509.9,479.6 516.5,471.6 526.3,471.6C536.4,472.1 544.3,480.7 543.8,490.8L543.8,491.5C544.1,527.8 544.1,564.1 543.8,600.5C543.8,612.9 536.7,620.4 526.4,620.2C516.2,620.1 510,612.5 509.9,599.8Z" style="fill:none;fill-rule:nonzero;stroke:rgb(116,213,191);stroke-width:1.81px;"/>
                <path d="M310.8,610.8L310.8,502.9C310.8,490.5 317.4,482.5 327.2,482.5C337.3,483 345.2,491.6 344.7,501.7L344.7,502.4C345,538.8 345,575.1 344.7,611.5C344.7,623.9 337.6,631.3 327.4,631.2C317.3,631.1 310.9,623.5 310.8,610.8Z" style="fill:none;fill-rule:nonzero;stroke:rgb(116,213,191);stroke-width:1.81px;"/>
                <path d="M592.8,510.9C602.1,510.9 609.6,518.4 609.6,527.7L609.6,556.7C609.6,566 602.1,573.5 592.8,573.5C583.5,573.5 576,566 576,556.7L576,527.7C576.1,518.5 583.6,510.9 592.8,510.9" style="fill:none;fill-rule:nonzero;stroke:rgb(116,213,191);stroke-width:1.81px;"/>
                <path d="M659.3,536.4C668.6,536.4 676.1,543.9 676.1,553.2L676.1,716.1C676.1,725.4 668.6,732.9 659.3,732.9C650,732.9 642.5,725.4 642.5,716.1L642.5,553.2C642.5,543.9 650,536.4 659.3,536.4" style="fill:none;fill-rule:nonzero;stroke:rgb(116,213,191);stroke-width:1.81px;"/>
                <path d="M725.4,542.7C734.7,542.7 742.2,550.2 742.2,559.5L742.2,697.9C742.2,707.2 734.7,714.7 725.4,714.7C716.1,714.7 708.6,707.2 708.6,697.9L708.6,559.5C708.6,550.2 716.1,542.7 725.4,542.7" style="fill:none;fill-rule:nonzero;stroke:rgb(116,213,191);stroke-width:1.81px;"/>
                <path d="M792.3,526.9C801.6,526.9 809.1,534.4 809.1,543.7L809.1,603.4C809.1,612.7 801.6,620.2 792.3,620.2C783,620.2 775.5,612.7 775.5,603.4L775.5,543.7C775.5,534.4 783.1,526.9 792.3,526.9" style="fill:none;fill-rule:nonzero;stroke:rgb(116,213,191);stroke-width:1.81px;"/>
                <g transform="matrix(1,0,0,1,-565.238,-15398.8)">
                    <rect x="768.538" y="15474.2" width="723.9" height="723.9" style="fill:none;"/>
                </g>
            </g>
        </g>
    </g>
</svg>
