<?xml version="1.0" encoding="UTF-8" standalone="no"?>
<!DOCTYPE svg PUBLIC "-//W3C//DTD SVG 1.1//EN" "http://www.w3.org/Graphics/SVG/1.1/DTD/svg11.dtd">
<svg width="100%" height="100%" viewBox="0 0 312 507" version="1.1" xmlns="http://www.w3.org/2000/svg" xmlns:xlink="http://www.w3.org/1999/xlink" xml:space="preserve" xmlns:serif="http://www.serif.com/" style="fill-rule:evenodd;clip-rule:evenodd;stroke-linejoin:round;stroke-miterlimit:2;">
    <g transform="matrix(1,0,0,1,-9640.47,-3761.1)">
        <g transform="matrix(0.844808,0,0,0.810351,15002.8,45.7579)">
            <g id="api3-eth" serif:id="api3 eth" transform="matrix(0.46739,0,0,0.487265,-6346.19,4586.09)">
                <g>
                    <path d="M392.07,0L392.07,882.29L784.13,650.54L392.07,0Z" style="fill:none;fill-rule:nonzero;stroke:rgb(116,213,191);stroke-width:5.07px;"/>
                    <path d="M392.07,0L-0,650.54L392.07,882.29L392.07,0Z" style="fill:none;fill-rule:nonzero;stroke:rgb(116,213,191);stroke-width:5.07px;"/>
                    <path d="M392.07,956.52L392.07,1277.38L784.37,724.89L392.07,956.52Z" style="fill:none;fill-rule:nonzero;stroke:rgb(116,213,191);stroke-width:5.07px;"/>
                    <path d="M392.07,1277.38L392.07,956.52L-0,724.89L392.07,1277.38Z" style="fill:none;fill-rule:nonzero;stroke:rgb(116,213,191);stroke-width:5.07px;"/>
                    <path d="M392.07,882.29L784.13,650.54L392.07,472.33L392.07,882.29Z" style="fill:none;fill-rule:nonzero;stroke:rgb(116,213,191);stroke-width:5.07px;"/>
                    <path d="M0,650.54L392.07,882.29L392.07,472.33L0,650.54Z" style="fill:none;fill-rule:nonzero;stroke:rgb(116,213,191);stroke-width:5.07px;"/>
                </g>
            </g>
        </g>
    </g>
</svg>
