
<svg width="100%" height="100%" viewBox="0 0 249 401" version="1.1" xmlns="http://www.w3.org/2000/svg" xmlns:xlink="http://www.w3.org/1999/xlink" xml:space="preserve" xmlns:serif="http://www.serif.com/" style="fill-rule:evenodd;clip-rule:evenodd;stroke-linejoin:round;stroke-miterlimit:2;">
    <g transform="matrix(1,0,0,1,-9002.56,-3763.6)">
        <g transform="matrix(0.98834,0,0,0.94591,15557.7,-782.509)">
            <g id="ethereum" transform="matrix(0.319611,0,0,0.331047,-6631.94,4806.6)">
                <g>
                    <path d="M392.07,0L392.07,882.29L784.13,650.54L392.07,0Z" style="fill:none;fill-rule:nonzero;stroke:rgb(116,213,191);stroke-width:3.18px;"/>
                    <path d="M392.07,0L-0,650.54L392.07,882.29L392.07,0Z" style="fill:none;fill-rule:nonzero;stroke:rgb(116,213,191);stroke-width:3.18px;"/>
                    <path d="M392.07,956.52L392.07,1277.38L784.37,724.89L392.07,956.52Z" style="fill:none;fill-rule:nonzero;stroke:rgb(116,213,191);stroke-width:3.18px;"/>
                    <path d="M392.07,1277.38L392.07,956.52L-0,724.89L392.07,1277.38Z" style="fill:none;fill-rule:nonzero;stroke:rgb(116,213,191);stroke-width:3.18px;"/>
                    <path d="M392.07,882.29L784.13,650.54L392.07,472.33L392.07,882.29Z" style="fill:none;fill-rule:nonzero;stroke:rgb(116,213,191);stroke-width:3.18px;"/>
                    <path d="M0,650.54L392.07,882.29L392.07,472.33L0,650.54Z" style="fill:none;fill-rule:nonzero;stroke:rgb(116,213,191);stroke-width:3.18px;"/>
                </g>
            </g>
        </g>
    </g>
</svg>
